<svg width="993" height="1056" viewBox="0 0 993 1056" fill="none" xmlns="http://www.w3.org/2000/svg">
<path fill-rule="evenodd" clip-rule="evenodd" d="M38.3267 721.055C37.762 714.301 37.7634 707.71 38.2826 701.269C42.264 705.185 46.5539 708.946 51.1093 712.574C49.9385 719.056 49.278 725.654 49.183 732.379C45.2606 728.783 41.6297 725.016 38.3267 721.055ZM37.2182 719.703C36.7418 713.1 36.8027 706.652 37.3553 700.348C33.6101 696.596 30.1476 692.701 27.0049 688.643C27.0561 692.277 27.2673 695.968 27.6456 699.719C27.9067 702.307 28.257 704.833 28.6936 707.297C31.191 711.638 34.0441 715.766 37.2182 719.703ZM51.3158 711.46C46.7144 707.774 42.3926 703.953 38.3942 699.973C39.0655 692.648 40.4062 685.516 42.3445 678.556C47.0089 682.643 51.9603 686.615 57.1471 690.492C54.6376 697.353 52.6692 704.337 51.3158 711.46ZM57.5089 689.514C52.2921 685.606 47.3207 681.606 42.6463 677.49C53.1866 640.884 80.2362 609.013 113.264 578.728C131.314 562.177 151.122 546.123 170.967 530.04C177.596 524.668 184.229 519.292 190.802 513.893C217.039 492.343 242.308 470.435 262.451 446.962C279.122 427.534 298.908 411.757 318.583 396.069C322.396 393.029 326.205 389.992 329.986 386.932C334.038 383.653 338.057 380.35 342.013 376.989C341.381 378.567 340.725 380.132 340.048 381.684C334.036 387.754 327.783 393.632 321.428 399.454C317.852 402.729 314.244 405.987 310.628 409.251L310.628 409.251C291.95 426.114 273.086 443.146 257.573 463.641C238.962 488.228 215.137 511.592 190.273 534.704C184.054 540.485 177.77 546.25 171.487 552.014C152.658 569.288 133.837 586.554 116.811 604.204C90.7631 631.206 68.857 659.163 57.5089 689.514ZM57.9846 691.116C55.4812 698.005 53.5289 705.016 52.2021 712.165C57.1006 716.041 62.3079 719.769 67.7722 723.376C69.6595 716.478 72.0843 709.667 74.976 702.932C69.0985 699.076 63.4153 695.146 57.9846 691.116ZM75.3792 702C69.4782 698.126 63.7808 694.18 58.3443 690.138C69.5856 659.883 91.4232 631.962 117.531 604.898C134.533 587.273 153.321 570.037 172.143 552.77L172.145 552.768C178.432 547 184.724 541.228 190.954 535.437C215.823 512.32 239.703 488.906 258.37 464.244C273.821 443.831 292.603 426.873 311.281 410.01C314.9 406.741 318.516 403.477 322.103 400.191C327.814 394.96 333.449 389.677 338.907 384.245C338.273 385.637 337.622 387.02 336.954 388.392C329.777 397.038 322.077 405.307 314.196 413.489C310.831 416.981 307.433 420.458 304.029 423.942L304.029 423.942C286.44 441.938 268.676 460.114 254.473 481.538C237.434 507.239 215.114 532.045 191.742 556.665C185.896 562.823 179.984 568.969 174.073 575.114C156.36 593.53 138.654 611.938 122.763 630.616C103.063 653.771 86.1171 677.382 75.3792 702ZM75.8255 703.488C72.9377 710.233 70.523 717.051 68.6519 723.954C74.3531 727.686 80.3283 731.29 86.5195 734.799C88.7553 728.194 91.4283 721.633 94.4767 715.108C92.119 713.698 89.7812 712.281 87.4665 710.856C83.5169 708.426 79.6313 705.972 75.8255 703.488ZM94.9041 714.199C92.5801 712.808 90.2746 711.41 87.9906 710.005C83.9955 707.546 80.0693 705.066 76.2277 702.556C86.8989 678.025 103.798 654.451 123.525 631.264C139.394 612.611 157.069 594.235 174.777 575.826L174.791 575.81L174.792 575.81L174.792 575.809L174.793 575.809L174.793 575.808L174.794 575.808L174.794 575.807C180.704 569.663 186.617 563.516 192.467 557.354C215.844 532.729 238.216 507.87 255.306 482.091C269.453 460.753 287.14 442.655 304.727 424.658L304.741 424.644C308.145 421.161 311.545 417.681 314.916 414.183C321.832 407.004 328.618 399.747 335.042 392.217C334.537 393.201 334.023 394.18 333.502 395.154C325.659 406.625 316.849 417.473 307.752 428.204C304.616 431.903 301.446 435.589 298.27 439.281L298.269 439.282C281.86 458.359 265.286 477.627 252.472 499.909C237.1 526.641 216.402 552.815 194.64 578.869C189.198 585.385 183.689 591.894 178.181 598.401L178.179 598.404L178.178 598.405C161.671 617.908 145.17 637.403 130.498 657.053C116.438 675.883 104.037 694.881 94.9041 714.199ZM95.3393 715.624C92.2953 722.147 89.6304 728.703 87.4058 735.299C92.4817 738.159 97.7 740.956 103.029 743.707C105.384 737.391 108.091 731.091 111.097 724.805C105.774 721.764 100.51 718.708 95.3393 715.624ZM111.531 723.902C106.207 720.86 100.942 717.802 95.7662 714.714C104.858 695.461 117.229 676.495 131.3 657.651C145.951 638.028 162.424 618.567 178.926 599.07L178.926 599.069C184.439 592.556 189.955 586.039 195.408 579.51C217.173 553.451 237.921 527.221 253.339 500.408C266.102 478.214 282.603 459.029 299.012 439.952L299.015 439.949L299.017 439.946L299.02 439.943L299.022 439.94L299.025 439.937L299.046 439.912C302.215 436.228 305.38 432.548 308.515 428.851C315.534 420.57 322.395 412.207 328.78 403.53C321.165 416.389 312.335 428.544 303.165 440.582C300.227 444.44 297.253 448.286 294.274 452.139L294.274 452.14C278.883 472.048 263.338 492.155 251.705 515.076C237.749 542.574 218.446 569.792 198.074 596.948C192.979 603.739 187.817 610.528 182.655 617.315L182.653 617.317C167.187 637.655 151.727 657.985 138.101 678.373C127.998 693.491 118.892 708.656 111.531 723.902ZM111.968 725.302C108.968 731.58 106.269 737.868 103.924 744.168C119.525 752.19 136.01 759.81 152.608 767.484C164.921 773.176 177.297 778.898 189.421 784.833C211.641 795.711 232.974 807.289 251.378 820.671C248.606 817.469 245.767 814.377 242.855 811.409C223.135 791.309 197.369 774.214 169.978 758.116C158.387 751.305 146.493 744.665 134.647 738.053L134.645 738.052C127.035 733.803 119.444 729.566 111.968 725.302ZM254.921 823.297C251.258 818.903 247.48 814.695 243.569 810.709C223.753 790.511 197.893 773.362 170.484 757.254C158.846 750.415 146.94 743.769 135.095 737.157C127.477 732.905 119.883 728.666 112.402 724.399C119.737 709.197 128.825 694.053 138.933 678.929C152.54 658.568 167.974 638.273 183.435 617.941L183.436 617.94L183.44 617.935L183.441 617.934L183.442 617.933L183.442 617.932L183.443 617.931L183.443 617.93L183.444 617.929L183.445 617.928C188.607 611.14 193.772 604.348 198.874 597.548C219.249 570.388 238.599 543.11 252.597 515.528C264.183 492.699 279.66 472.679 295.051 452.77L295.065 452.753C298.043 448.9 301.018 445.052 303.961 441.188C315.09 426.576 325.754 411.751 334.358 395.675C337.003 391.804 339.541 387.86 341.944 383.824C345.115 379.81 348.165 375.704 351.063 371.479C354.415 367.738 357.657 363.9 360.759 359.94C364.307 356.432 367.752 352.824 371.067 349.085C375.022 345.633 378.869 342.062 382.581 338.337C387.056 334.956 391.42 331.433 395.641 327.724C400.63 324.49 405.506 321.089 410.234 317.466C424.919 309.51 438.827 300.193 451.282 288.211C472.309 267.982 488.668 241.338 503.192 212.723C510.456 198.413 517.264 183.602 523.969 168.845C524.845 166.919 525.718 164.994 526.591 163.071C532.404 150.259 538.172 137.544 544.133 125.28C554.446 104.058 565.315 84.2272 577.936 67.627C594.245 81.8126 610.269 97.9059 625.865 115.078C661.664 154.493 695.179 199.553 724.7 240.181C728.814 245.843 732.85 251.419 736.805 256.882L736.892 257.001L736.896 257.008C757.733 285.792 776.294 311.432 791.884 329.902C795.605 335.166 799.186 340.068 802.621 344.553C806.315 350.592 809.872 356.199 813.287 361.305C816.535 367.442 819.677 373.156 822.713 378.379C825.56 384.656 828.328 390.508 831.021 395.87C833.61 402.666 836.14 408.984 838.622 414.751C840.89 422.222 843.128 429.15 845.353 435.444C847.195 443.544 849.046 451.033 850.934 457.806C852.681 469.66 854.537 480.271 856.614 489.331C861.608 511.118 871.695 532.63 883.341 553.852C889.086 564.32 895.215 574.725 901.302 585.061L901.303 585.062L901.554 585.489C906.694 594.216 911.802 602.894 916.625 611.526C911.452 614.767 906.189 617.991 900.899 621.231L900.897 621.233L900.895 621.234C885.762 630.503 870.417 639.902 856.393 650.209C837.234 664.29 820.482 680.104 810.022 699.685C809.956 699.809 809.89 699.932 809.824 700.056L809.723 700.248L809.627 700.429C806.233 704.544 803.137 708.862 800.39 713.416C799.93 714.179 799.477 714.945 799.03 715.716C794.892 719.997 791.099 724.549 787.721 729.419C787.247 730.103 786.778 730.791 786.315 731.482C781.968 735.462 777.942 739.729 774.303 744.334C774.165 744.508 774.028 744.683 773.891 744.857C773.555 745.286 773.222 745.716 772.891 746.148C768.365 749.82 764.137 753.792 760.265 758.117C759.738 758.706 759.216 759.299 758.698 759.896C753.933 763.293 749.448 767.011 745.301 771.105C744.505 771.891 743.717 772.686 742.939 773.49C737.647 776.687 732.64 780.258 727.98 784.273C727.018 785.102 726.068 785.943 725.127 786.796C719.48 789.66 714.102 792.935 709.053 796.699C707.793 797.638 706.547 798.598 705.316 799.578C699.171 802.077 693.282 805.042 687.712 808.569C663.516 823.895 643.761 846.308 625.961 871.277C614.003 888.051 602.909 906.008 591.943 923.758L591.942 923.759L591.938 923.765C586.589 932.423 581.269 941.033 575.894 949.432C567.592 962.407 559.158 974.88 550.271 986.281C544.926 982.995 539.569 979.661 534.199 976.319L534.196 976.318L534.193 976.316L534.19 976.314L534.188 976.313L534.185 976.311L534.182 976.309L534.179 976.308L534.177 976.306C523.321 969.549 512.411 962.759 501.438 956.27C476.07 941.268 450.446 927.925 424.672 920.531C421.566 919.64 418.411 918.823 415.211 918.073C411.495 916.543 407.77 915.128 404.035 913.842C400.252 912.54 396.387 911.346 392.451 910.249C388.137 908.086 383.799 906.083 379.435 904.263C375.809 902.751 372.099 901.338 368.314 900.015C364.209 897.63 360.071 895.399 355.896 893.343C352.447 891.644 348.91 890.035 345.296 888.508C341.413 885.928 337.489 883.495 333.52 881.228C330.154 879.306 326.695 877.469 323.152 875.711C319.412 872.877 315.622 870.187 311.776 867.664C308.192 865.313 304.487 863.06 300.676 860.894C296.828 857.507 292.91 854.285 288.912 851.256C285.346 848.555 281.642 845.951 277.816 843.434C274.089 839.635 270.273 836.007 266.357 832.58C262.708 829.387 258.889 826.297 254.921 823.297ZM254.227 824.026C235.143 809.613 212.591 797.289 188.981 785.732C176.907 779.82 164.543 774.104 152.229 768.411L152.226 768.409C135.64 760.741 119.146 753.115 103.575 745.113C101.269 751.404 99.317 757.708 97.7713 764.027C105.013 767.609 112.549 771.033 120.293 774.353C136.527 781.314 153.632 787.801 170.855 794.334L170.856 794.335L170.859 794.336C183.542 799.146 196.291 803.982 208.803 809.048C227.442 816.596 245.529 824.646 262.013 833.867C259.473 830.496 256.88 827.211 254.227 824.026ZM264.174 835.088C262.061 832.238 259.911 829.446 257.721 826.72C260.461 828.876 263.122 831.079 265.698 833.333C268.46 835.75 271.172 838.267 273.839 840.875C270.69 838.894 267.465 836.967 264.174 835.088ZM263.496 835.853C246.548 826.197 227.804 817.821 208.428 809.975C195.968 804.93 183.234 800.1 170.552 795.289L170.546 795.287C153.293 788.742 136.137 782.234 119.899 775.272C112.22 771.98 104.736 768.582 97.5309 765.024C96.0269 771.35 94.9322 777.69 94.2983 784.049C107.786 790.912 122.67 796.861 138.337 802.356C155.006 808.201 172.511 813.516 190.139 818.868L190.139 818.868C203.12 822.809 216.166 826.77 228.993 830.978C243.433 835.715 257.578 840.759 270.995 846.431C268.543 842.828 266.046 839.297 263.496 835.853ZM272.693 847.153C270.386 843.733 268.038 840.374 265.645 837.089C269.596 839.387 273.445 841.758 277.178 844.21C279.911 846.998 282.597 849.88 285.242 852.843C281.144 850.874 276.957 848.981 272.693 847.153ZM272.028 847.957C258.231 842.055 243.625 836.83 228.681 831.928C215.909 827.738 202.877 823.781 189.898 819.84L189.896 819.84L189.895 819.839L189.894 819.839L189.892 819.838C172.236 814.477 154.678 809.146 138.006 803.299C122.47 797.851 107.66 791.942 94.196 785.119C93.6636 790.937 93.5191 796.77 93.8019 802.621C111.94 812.688 133.38 820.234 156.384 826.739C173.382 831.546 191.182 835.771 209.106 840.026C222.305 843.159 235.571 846.308 248.633 849.716C258.859 852.385 268.951 855.211 278.772 858.31C276.559 854.804 274.313 851.35 272.028 847.957ZM280.249 858.779C278.106 855.365 275.931 851.998 273.721 848.686C278.23 850.642 282.65 852.673 286.964 854.791C289.467 857.648 291.933 860.577 294.366 863.568C289.737 861.897 285.026 860.305 280.249 858.779ZM279.596 859.62C269.446 856.389 258.99 853.453 248.38 850.684C235.372 847.289 222.118 844.143 208.919 841.009C190.965 836.747 173.112 832.509 156.112 827.702C133.339 821.262 112.005 813.78 93.8645 803.797C94.195 809.481 94.931 815.182 96.1086 820.901C117.765 834.731 145.506 843.219 175.757 849.803C193.017 853.56 211.042 856.687 229.193 859.836C242.559 862.155 255.993 864.486 269.239 867.089C274.977 868.216 280.678 869.394 286.318 870.644C284.107 866.925 281.869 863.246 279.596 859.62ZM287.658 870.942C285.491 867.285 283.297 863.665 281.071 860.093C285.989 861.678 290.833 863.334 295.586 865.076C298.096 868.197 300.571 871.383 303.018 874.624C297.962 873.324 292.836 872.102 287.658 870.942ZM287.018 871.824C281.09 870.501 275.09 869.257 269.046 868.07C255.854 865.478 242.433 863.149 229.067 860.83L229.066 860.83L229.065 860.829L229.064 860.829L229.063 860.829L229.062 860.829L229.061 860.829C210.882 857.674 192.805 854.537 175.544 850.78C145.681 844.281 118.106 835.898 96.3986 822.268C97.5951 827.752 99.2001 833.254 101.245 838.774C125.417 857.467 159.376 866.31 196.928 872.056C214.389 874.727 232.575 876.723 250.887 878.733C264.371 880.213 277.924 881.7 291.307 883.47C292.195 883.588 293.081 883.706 293.966 883.826C293.269 882.597 292.569 881.372 291.867 880.149C290.264 877.356 288.648 874.579 287.018 871.824ZM295.212 883.996C294.39 882.544 293.564 881.096 292.735 879.651C291.286 877.128 289.828 874.618 288.357 872.124C293.629 873.314 298.844 874.569 303.983 875.906C306.574 879.364 309.133 882.881 311.665 886.445C306.229 885.563 300.739 884.753 295.212 883.996ZM294.586 884.92C293.451 884.765 292.314 884.612 291.176 884.462C277.85 882.699 264.311 881.213 250.828 879.732L250.823 879.732L250.82 879.732L250.817 879.731L250.815 879.731C232.475 877.718 214.238 875.716 196.777 873.044C159.885 867.4 126.224 858.74 101.916 840.542C102.421 841.846 102.95 843.151 103.505 844.457C105.119 848.255 106.9 851.834 108.839 855.208C134.578 880.621 174.814 889.308 219.851 893.294C237.446 894.851 255.722 895.687 274.125 896.53C283.348 896.952 292.603 897.375 301.82 897.892C299.426 893.546 297.018 889.216 294.586 884.92ZM302.999 897.958C300.629 893.653 298.243 889.358 295.832 885.09C301.427 885.862 306.981 886.689 312.477 887.591C314.938 891.071 317.374 894.595 319.792 898.15C320.006 898.465 320.22 898.779 320.433 899.095C318.547 898.953 316.658 898.819 314.764 898.69C310.854 898.424 306.93 898.182 302.999 897.958ZM302.389 898.926C292.997 898.395 283.547 897.962 274.124 897.531C255.691 896.686 237.361 895.847 219.763 894.29C176.226 890.437 136.848 882.176 110.777 858.427C135.837 898.223 184.341 907.633 239.666 909.627C257.319 910.263 275.613 910.144 294.035 910.025H294.04H294.046H294.051H294.057H294.062H294.068H294.073C298.848 909.994 303.632 909.963 308.415 909.945C306.412 906.269 304.406 902.592 302.389 898.926ZM309.552 909.941C307.564 906.291 305.571 902.639 303.568 898.993C307.288 899.206 311 899.436 314.697 899.688C316.852 899.834 319.003 899.989 321.149 900.151C323.347 903.404 325.532 906.682 327.706 909.976C321.668 909.923 315.611 909.921 309.552 909.941ZM308.958 910.943C304.01 910.961 299.058 910.993 294.114 911.024L294.092 911.025H294.092H294.091H294.09H294.089H294.088H294.088H294.087H294.083C275.632 911.144 257.284 911.262 239.63 910.626C182.902 908.582 132.793 898.744 108.044 855.832C100.742 848.602 94.5927 840.03 89.8206 829.842C82.1013 821.737 75.8243 812.154 71.3039 800.758C64.262 792.317 58.7001 782.538 54.9348 771.123C48.4975 762.301 43.6019 752.247 40.5757 740.69C34.3816 731.026 29.9702 720.111 27.7406 707.651C21.6471 697.017 17.6575 685.11 16.2817 671.607C10.5448 659.969 7.249 647.079 7.02518 632.6C1.16162 618.666 -1.30238 603.306 0.668988 586.059C7.71483 524.419 55.2235 488.127 113.649 458.737C135.556 447.717 159.031 437.653 182.515 427.584L182.516 427.584C190.353 424.224 198.191 420.863 205.972 417.467C237.084 403.886 267.299 389.723 292.998 372.681C311.494 360.415 331.493 351.413 351.548 342.919C355.456 320.623 355.829 296.736 354.708 272.322C353.973 256.315 352.595 240.091 351.153 223.947C350.965 221.843 350.776 219.739 350.587 217.638L350.587 217.635C349.327 203.623 348.075 189.701 347.213 176.078C343.249 113.458 347.48 56.8265 397.29 26.1259C413.773 15.9664 430.469 10.6161 447.234 9.26157C457.224 6.33897 467.183 4.95798 477.092 4.95031C488.148 2.1505 499.055 1.18271 509.8 1.83001C520.8 -0.205245 531.546 -0.489136 542.039 0.772769C553.071 -0.544515 563.747 -0.151351 574.08 1.75071C585.769 1.07022 596.945 2.2605 607.64 5.08733C620.197 5.02835 632.026 7.06803 643.183 10.9248C656.501 11.7166 668.836 14.809 680.275 19.8721C715.499 24.2079 742.589 44.1797 763.67 73.8104C788.479 108.68 804.99 156.95 816.712 208.942C828.437 260.943 835.383 316.716 841.034 366.62C841.244 368.467 841.451 370.305 841.657 372.135C846.071 375.076 850.582 377.95 855.156 380.775C865.302 387.042 875.752 393.065 886.147 399.058L886.149 399.059L886.574 399.303C897.107 405.376 907.581 411.419 917.605 417.645C957.673 442.531 990.768 470.457 992.073 515.287C992.201 519.677 991.974 523.895 991.422 527.956C991.769 531.463 991.906 535.067 991.82 538.775C991.698 544.043 991.079 549.037 990.013 553.786C990.304 558.154 990.262 562.652 989.859 567.291C989.41 572.456 988.497 577.326 987.167 581.932C987.171 586.228 986.848 590.629 986.169 595.143C985.413 600.177 984.228 604.899 982.656 609.341C982.388 613.538 981.802 617.814 980.869 622.179C979.799 627.191 978.314 631.861 976.457 636.223C975.931 640.429 975.078 644.695 973.868 649.03C972.363 654.422 970.391 659.376 968.001 663.94C967.183 668.562 965.959 673.232 964.289 677.956C962.35 683.437 959.941 688.412 957.112 692.94C955.958 697.703 954.357 702.487 952.265 707.294C949.771 713.026 946.775 718.137 943.336 722.703C941.774 727.785 939.686 732.853 937.015 737.904C916.208 777.245 872.416 783.24 824.802 785.393C818.407 785.682 811.942 785.902 805.45 786.123L805.447 786.123C799.646 786.32 793.823 786.518 788.01 786.767C786.03 806.602 785.26 826.953 784.497 847.113C784.111 857.295 783.728 867.428 783.191 877.422C779.928 938.209 771.01 993.804 721.209 1022.33C710.155 1028.67 698.992 1032.49 687.732 1034.26C677.747 1038.41 667.777 1040.69 657.814 1041.42C646.69 1045.61 635.726 1047.57 624.886 1047.7C613.732 1051.08 602.866 1052.34 592.23 1051.84C580.965 1054.48 570.111 1055.04 559.591 1053.89C547.565 1055.95 536.138 1055.73 525.193 1053.65C512.172 1055.19 500.015 1054.17 488.545 1051.08C474.616 1051.84 461.862 1049.78 450.032 1045.48C397.015 1045.08 363.891 1005.7 334.834 957.106C326.515 943.192 318.505 928.478 310.453 913.687L310.452 913.686C309.954 912.772 309.456 911.858 308.958 910.943ZM447.25 1044.43C396.439 1042.69 364.226 1004.31 335.693 956.592C327.372 942.676 319.388 928.01 311.351 913.247C310.933 912.478 310.514 911.709 310.095 910.939C316.201 910.921 322.3 910.926 328.369 910.982C332.565 917.349 336.723 923.771 340.871 930.177L340.872 930.179L340.873 930.181C350.025 944.316 359.13 958.378 368.482 971.619C391.497 1004.2 416.177 1032.07 447.25 1044.43ZM453.037 1045.46C463.13 1048.8 473.892 1050.49 485.479 1050.2C480.01 1048.54 474.698 1046.41 469.521 1043.86C464.234 1044.81 458.746 1045.35 453.037 1045.46ZM468.012 1043.1C462.673 1043.99 457.129 1044.46 451.359 1044.49C450.977 1044.49 450.596 1044.49 450.217 1044.48C418.214 1032.8 392.951 1004.53 369.299 971.042C359.945 957.799 350.87 943.782 341.736 929.673L341.734 929.671L341.733 929.669C337.702 923.442 333.659 917.198 329.575 910.994C331.291 911.011 333.005 911.033 334.716 911.06C338.349 911.117 341.969 911.196 345.573 911.303C345.993 911.834 346.414 912.365 346.833 912.898C354.696 922.868 362.421 933.135 370.116 943.361C380.243 956.817 390.316 970.204 400.579 982.754C421.412 1008.23 443.149 1030.42 468.012 1043.1ZM471.175 1043.55C476.832 1046.25 482.65 1048.45 488.655 1050.07C489.535 1050.02 490.42 1049.96 491.309 1049.89C496.218 1049.49 500.938 1048.79 505.484 1047.79C499.399 1045.32 493.455 1042.31 487.628 1038.83C482.363 1040.84 476.887 1042.43 471.175 1043.55ZM486.536 1038.17C481.144 1040.18 475.53 1041.75 469.668 1042.82C444.511 1030.35 422.52 1008.01 401.353 982.121C391.09 969.57 381.051 956.228 370.945 942.798L370.944 942.797L370.942 942.795L370.941 942.793L370.934 942.784C363.243 932.563 355.514 922.292 347.619 912.279C347.372 911.966 347.126 911.654 346.88 911.343C351.762 911.497 356.614 911.703 361.424 911.976C365.565 916.308 369.666 920.742 373.739 925.243C382.258 934.657 390.66 944.377 399.03 954.058L399.031 954.059L399.032 954.06C410.046 966.8 421.002 979.473 432.091 991.299C449.551 1009.92 467.421 1026.53 486.536 1038.17ZM488.811 1038.37C494.812 1041.91 500.934 1044.95 507.203 1047.4C512.43 1046.15 517.425 1044.52 522.21 1042.54C515.734 1039.36 509.36 1035.62 503.068 1031.43C498.486 1034.09 493.741 1036.41 488.811 1038.37ZM502.141 1030.81C497.509 1033.47 492.71 1035.79 487.722 1037.72C468.489 1026.15 450.481 1009.45 432.82 990.615C421.73 978.787 410.809 966.155 399.816 953.438L399.815 953.437L399.812 953.433C391.445 943.755 383.037 934.029 374.48 924.572C370.646 920.335 366.785 916.154 362.887 912.061C367.067 912.31 371.215 912.612 375.324 912.975C383.298 919.918 391.147 927.288 398.916 934.875C407.998 943.746 416.984 952.928 425.934 962.074L425.937 962.077L425.938 962.078C437.717 974.115 449.434 986.088 461.231 997.207C474.637 1009.84 488.192 1021.43 502.141 1030.81ZM504.028 1030.87C510.411 1035.1 516.871 1038.85 523.433 1042.02C528.315 1039.93 532.977 1037.46 537.445 1034.66C530.631 1030.87 523.878 1026.57 517.167 1021.88C512.933 1025.18 508.561 1028.19 504.028 1030.87ZM516.31 1021.28C512.054 1024.58 507.659 1027.58 503.103 1030.26C489.091 1020.87 475.448 1009.23 461.916 996.48C450.119 985.36 438.442 973.426 426.687 961.413L426.686 961.412L426.685 961.412L426.685 961.411L426.684 961.41L426.683 961.409C417.734 952.264 408.74 943.073 399.614 934.16C392.176 926.895 384.658 919.823 377.02 913.128C380.941 913.492 384.826 913.913 388.668 914.401C400.798 923.03 412.694 932.73 424.454 942.886C434.064 951.185 443.596 959.801 453.09 968.382L453.092 968.383L453.093 968.384L453.094 968.385L453.095 968.386L453.096 968.387C465.588 979.678 478.015 990.91 490.469 1001.29C499.039 1008.43 507.64 1015.17 516.31 1021.28ZM517.99 1021.24C524.754 1025.95 531.553 1030.26 538.407 1034.05C542.954 1031.14 547.3 1027.88 551.47 1024.32C544.35 1020.1 537.25 1015.45 530.159 1010.51C526.224 1014.34 522.175 1017.93 517.99 1021.24ZM529.325 1009.93C525.382 1013.76 521.325 1017.34 517.134 1020.64C508.416 1014.51 499.754 1007.72 491.109 1000.52C478.652 990.14 466.265 978.943 453.796 967.671L453.794 967.67C444.302 959.09 434.762 950.467 425.108 942.129C413.83 932.389 402.412 923.055 390.769 914.674C394.51 915.175 398.209 915.74 401.86 916.378C418.496 925.689 434.815 937.164 450.953 949.428C461.057 957.107 471.104 965.107 481.11 973.075L481.112 973.077L481.114 973.078L481.117 973.08L481.119 973.082L481.121 973.083L481.123 973.085L481.125 973.087L481.127 973.089C494.301 983.578 507.406 994.014 520.485 1003.59C523.431 1005.75 526.377 1007.86 529.325 1009.93ZM530.887 1009.8C538.011 1014.76 545.134 1019.41 552.27 1023.63C556.383 1020.05 560.327 1016.19 564.125 1012.06C559.79 1009.48 555.452 1006.79 551.11 1004.01C548.05 1002.06 544.985 1000.06 541.917 998.026C538.333 1002.15 534.663 1006.09 530.887 1009.8ZM541.076 997.468C537.493 1001.59 533.824 1005.51 530.053 1009.22C527.061 1007.12 524.069 1004.98 521.076 1002.79C507.995 993.206 494.934 982.804 481.785 972.334L481.783 972.332L481.781 972.33L481.779 972.328L481.771 972.322L481.763 972.316C471.76 964.351 461.707 956.345 451.558 948.632C436.212 936.97 420.675 925.999 404.839 916.916C408.239 917.552 411.596 918.254 414.905 919.028C436.289 927.842 457.383 940.496 478.277 954.373C488.854 961.399 499.394 968.747 509.891 976.067C520.329 983.345 530.725 990.594 541.076 997.468ZM542.577 997.264C545.603 999.267 548.626 1001.24 551.648 1003.17C556.045 1005.98 560.433 1008.7 564.815 1011.3C567.736 1008.09 570.572 1004.73 573.334 1001.23C565.758 996.874 558.148 992.289 550.509 987.6C547.908 990.917 545.267 994.143 542.577 997.264ZM549.651 987.073C547.054 990.381 544.419 993.597 541.736 996.706C531.36 989.819 520.956 982.564 510.5 975.272C500.004 967.953 489.456 960.598 478.831 953.54C459.781 940.888 440.526 929.224 421.009 920.555C422.144 920.858 423.273 921.171 424.396 921.493C450.045 928.85 475.581 942.141 500.929 957.131C511.858 963.594 522.767 970.383 533.633 977.145L533.635 977.147C538.985 980.476 544.325 983.799 549.651 987.073ZM551.129 986.808C558.763 991.494 566.372 996.076 573.959 1000.44C586.52 984.371 597.574 965.537 608.262 945.651C612.982 936.869 617.632 927.881 622.308 918.841L622.312 918.832L622.313 918.831C631.899 900.299 641.597 881.552 652.245 863.918C666.568 840.2 682.64 818.441 702.546 801.836C697.584 804.019 692.806 806.527 688.248 809.414C664.21 824.639 644.544 846.933 626.775 871.858C614.836 888.606 603.772 906.513 592.816 924.247L592.815 924.248C587.46 932.916 582.131 941.542 576.737 949.971C568.457 962.91 560.028 975.384 551.129 986.808ZM705.826 800.45C684.819 817.2 668.029 839.714 653.102 864.434C642.469 882.042 632.798 900.738 623.221 919.253L623.219 919.255C618.539 928.304 613.88 937.31 609.143 946.124C598.485 965.954 587.43 984.812 574.835 1000.94C575.473 1001.3 576.11 1001.67 576.747 1002.03C583.204 1005.69 589.636 1009.18 596.041 1012.42C612.707 992.559 625.703 967.15 637.934 939.957C642.024 930.862 646.029 921.567 650.058 912.218L650.058 912.217L650.059 912.216L650.059 912.215C658.316 893.053 666.669 873.669 676.049 855.328C686.994 833.927 699.357 813.904 714.641 797.244C711.649 798.217 708.709 799.282 705.826 800.45ZM716.573 796.631C700.824 813.445 688.15 833.862 676.939 855.783C667.574 874.096 659.244 893.426 650.995 912.57C646.963 921.927 642.951 931.24 638.846 940.367C626.66 967.46 613.665 992.913 596.959 1012.88C603.693 1016.26 610.398 1019.36 617.072 1022.08C638.818 999.501 653.096 967.356 666.003 932.528C669.467 923.179 672.833 913.637 676.218 904.04L676.222 904.029C683.163 884.352 690.184 864.446 698.3 845.512C706.196 827.094 715.139 809.565 726.077 794.013C722.86 794.796 719.69 795.665 716.573 796.631ZM726.956 792.774C723.917 793.493 720.918 794.286 717.963 795.164C720.463 792.559 723.039 790.044 725.699 787.627C728.309 786.307 730.978 785.074 733.699 783.921C731.369 786.789 729.124 789.743 726.956 792.774ZM727.551 793.661C716.371 809.361 707.259 827.152 699.219 845.906C691.116 864.811 684.114 884.661 677.18 904.32C673.791 913.929 670.418 923.492 666.94 932.876C654.098 967.531 639.833 999.74 618.07 1022.49C623.982 1024.87 629.87 1026.97 635.734 1028.71C663.518 1004.65 678.37 966.201 691.073 924.123C693.955 914.576 696.727 904.84 699.515 895.049C705.229 874.982 711.009 854.68 717.943 835.281C723.391 820.038 729.558 805.332 736.976 791.704C733.797 792.285 730.653 792.935 727.551 793.661ZM737.595 790.575C734.508 791.128 731.453 791.744 728.435 792.431C730.753 789.23 733.159 786.119 735.663 783.107C738.328 782.024 741.041 781.015 743.798 780.072C741.635 783.49 739.571 786.995 737.595 790.575ZM738.24 791.476C730.684 805.238 724.418 820.137 718.885 835.618C711.962 854.987 706.198 875.231 700.49 895.28C697.699 905.079 694.923 914.832 692.03 924.412C679.41 966.218 664.597 1004.74 636.874 1029.04C642.442 1030.65 647.989 1031.94 653.512 1032.86C688.962 1008.26 703.757 963.586 715.405 914.265C717.697 904.562 719.867 894.678 722.049 884.738L722.051 884.728C726.526 864.348 731.052 843.731 736.785 823.945C740.174 812.245 743.988 800.824 748.468 789.898C745.024 790.358 741.613 790.88 738.24 791.476ZM748.908 788.831C745.529 789.275 742.178 789.778 738.862 790.352C740.913 786.669 743.058 783.069 745.308 779.563C748.251 778.587 751.241 777.684 754.272 776.845C752.382 780.763 750.598 784.762 748.908 788.831ZM749.611 789.748C745.055 800.79 741.184 812.355 737.745 824.223C732.022 843.979 727.508 864.538 723.038 884.899C720.853 894.851 718.679 904.755 716.378 914.495C704.83 963.394 690.118 1008.13 654.931 1033.08C660.21 1033.9 665.468 1034.37 670.703 1034.44C715.828 1010.02 729.883 959.196 739.549 902.696C741.231 892.866 742.78 882.862 744.338 872.802L744.338 872.8L744.338 872.799L744.338 872.798L744.338 872.797L744.339 872.796L744.339 872.795L744.339 872.794C747.532 852.177 750.762 831.321 755.247 811.217C756.965 803.518 758.868 795.925 761.024 788.491C758.19 788.754 755.369 789.049 752.567 789.382C751.579 789.499 750.594 789.621 749.611 789.748ZM761.326 787.459C758.35 787.732 755.389 788.039 752.449 788.389C751.649 788.484 750.85 788.582 750.053 788.683C751.784 784.541 753.613 780.475 755.553 776.495C758.87 775.6 762.234 774.78 765.638 774.024C764.093 778.433 762.661 782.916 761.326 787.459ZM762.094 788.393C759.9 795.921 757.967 803.621 756.223 811.435C751.744 831.51 748.523 852.311 745.333 872.911L745.333 872.912L745.333 872.914L745.332 872.915L745.332 872.917L745.332 872.918L745.332 872.92L745.332 872.921C743.773 882.987 742.222 893.004 740.534 902.865C730.987 958.674 717.1 1009.45 672.753 1034.45C677.676 1034.43 682.58 1034.06 687.464 1033.29C689.776 1032.33 692.089 1031.26 694.402 1030.1C745.092 1004.47 756.884 949.981 763.322 889.404C764.376 879.486 765.286 869.404 766.202 859.265L766.203 859.262C768.079 838.482 769.978 817.461 773.177 797.112C773.687 793.872 774.229 790.648 774.81 787.443C770.55 787.705 766.307 788.015 762.094 788.393ZM774.995 786.43C770.775 786.688 766.571 786.992 762.397 787.363C763.755 782.763 765.213 778.228 766.786 773.771C768.601 773.377 770.427 773 772.262 772.638C774.188 772.26 776.124 771.898 778.069 771.553C776.936 776.453 775.918 781.417 774.995 786.43ZM775.838 787.381C775.242 790.656 774.687 793.952 774.165 797.267C770.971 817.586 769.077 838.55 767.202 859.311L767.202 859.313L767.202 859.315L767.202 859.318L767.202 859.32L767.201 859.323L767.201 859.325L767.201 859.326L767.201 859.327C766.285 869.47 765.373 879.563 764.316 889.509C757.883 950.044 746.075 1005.1 694.853 1030.99C693.785 1031.53 692.718 1032.05 691.65 1032.54C701.421 1030.56 711.11 1026.97 720.712 1021.47C769.995 993.233 778.927 938.199 782.193 877.368C782.727 867.412 783.11 857.301 783.496 847.132V847.131V847.13V847.128V847.126V847.125V847.123V847.122V847.12C784.258 826.989 785.028 806.633 787 786.811C783.272 786.974 779.549 787.16 775.838 787.381ZM787.101 785.805C783.403 785.967 779.707 786.151 776.024 786.368C776.958 781.309 777.99 776.303 779.139 771.364C782.418 770.792 785.721 770.264 789.04 769.769C788.34 774.7 787.738 779.677 787.216 784.688C787.178 785.06 787.139 785.433 787.101 785.805ZM788.111 785.762C793.896 785.515 799.687 785.318 805.452 785.122C811.936 784.901 818.386 784.682 824.757 784.394C872.447 782.237 915.623 776.213 936.131 737.437C938.319 733.299 940.111 729.15 941.54 724.989C920.191 751.066 883.52 758.355 843.985 763.173C837.63 763.947 831.199 764.658 824.742 765.371H824.742C813.177 766.649 801.528 767.936 790.072 769.617C789.356 774.628 788.742 779.691 788.211 784.791C788.177 785.115 788.144 785.438 788.111 785.762ZM944.153 719.865C946.877 715.941 949.287 711.633 951.348 706.895C952.998 703.104 954.339 699.328 955.393 695.564C952.778 699.37 949.851 702.843 946.646 706.024C946.207 710.65 945.39 715.264 944.153 719.865ZM945.529 707.11C944.977 712.171 943.963 717.214 942.431 722.24C921.65 749.686 884.522 757.226 843.864 762.18C837.534 762.951 831.119 763.66 824.671 764.372C813.196 765.64 801.616 766.92 790.222 768.584C790.891 764.003 791.648 759.464 792.508 754.978C808.309 750.872 824.827 747.857 841.174 744.873C847.565 743.706 853.929 742.544 860.215 741.324C893.732 734.817 925.021 726.645 945.529 707.11ZM946.78 704.467C950.281 700.88 953.429 696.924 956.178 692.547C957.343 687.697 958.041 682.867 958.32 678.054C954.82 682.057 950.908 685.679 946.643 688.982C947.109 694.158 947.175 699.32 946.78 704.467ZM945.701 689.701C946.146 695.01 946.161 700.298 945.683 705.568C925.451 725.454 894.064 733.733 860.024 740.342C853.766 741.557 847.42 742.716 841.041 743.88L841.038 743.881L841.035 743.881L841.033 743.882C824.833 746.839 808.422 749.835 792.718 753.89C793.508 749.86 794.382 745.873 795.352 741.936C798.389 740.761 801.471 739.639 804.59 738.562C820.998 732.895 838.379 728.488 855.567 724.13L855.583 724.126L855.591 724.124L855.61 724.119C861.893 722.526 868.15 720.939 874.324 719.3C901.372 712.118 926.852 703.922 945.701 689.701ZM946.53 687.801C950.892 684.375 954.87 680.605 958.398 676.426C958.58 671.693 958.361 666.976 957.788 662.27C953.59 666.138 948.963 669.662 943.985 672.908C945.161 677.885 946.026 682.85 946.53 687.801ZM943.093 673.484C944.267 678.515 945.119 683.529 945.596 688.525C926.901 702.828 901.402 711.075 874.067 718.333C867.903 719.97 861.647 721.556 855.359 723.151C838.158 727.512 820.715 731.935 804.264 737.616C801.359 738.619 798.485 739.662 795.647 740.751C796.49 737.407 797.403 734.1 798.393 730.835C804.502 727.634 810.878 724.708 817.435 721.98C833.462 715.312 850.538 709.841 867.425 704.431L867.436 704.428C873.619 702.447 879.776 700.475 885.848 698.454C906.827 691.473 926.79 683.92 943.093 673.484ZM943.737 671.875C948.766 668.575 953.424 664.99 957.631 661.05C956.972 656.166 955.936 651.294 954.572 646.43C949.808 650.134 944.647 653.562 939.174 656.78C940.971 661.825 942.509 666.857 943.737 671.875ZM938.295 657.294C940.095 662.365 941.631 667.418 942.848 672.453C926.635 682.894 906.671 690.471 885.532 697.505C879.481 699.519 873.335 701.488 867.157 703.467C850.257 708.881 833.12 714.371 817.051 721.056C810.787 723.662 804.679 726.452 798.805 729.493C799.753 726.444 800.77 723.432 801.862 720.461C810.309 714.637 819.51 709.487 829.152 704.763C844.741 697.127 861.45 690.621 877.974 684.187C884.028 681.83 890.057 679.483 895.996 677.093C911.024 671.047 925.488 664.729 938.295 657.294ZM938.83 655.821C944.333 652.578 949.511 649.124 954.276 645.392C952.816 640.353 951.009 635.323 948.912 630.296C943.77 633.881 938.296 637.27 932.58 640.523C934.885 645.635 936.987 650.735 938.83 655.821ZM931.706 641.018C934.014 646.142 936.114 651.248 937.952 656.335C925.193 663.758 910.73 670.087 895.623 676.165C889.707 678.546 883.693 680.887 877.647 683.241C861.111 689.68 844.342 696.208 828.712 703.865C819.486 708.385 810.645 713.303 802.468 718.836C803.536 716.014 804.673 713.229 805.884 710.483C815.901 701.418 827.53 693.604 839.993 686.501C855.075 677.906 871.345 670.37 887.435 662.917C893.329 660.186 899.2 657.467 904.979 654.711C914.215 650.307 923.22 645.807 931.706 641.018ZM932.165 639.607C937.899 636.341 943.378 632.943 948.515 629.352C946.371 624.298 943.938 619.247 941.274 614.195C935.992 617.731 930.463 621.148 924.771 624.495C927.395 629.545 929.877 634.582 932.165 639.607ZM923.908 625.002C926.531 630.054 929.009 635.087 931.291 640.102C922.825 644.884 913.818 649.388 904.548 653.809C898.792 656.554 892.936 659.266 887.05 661.993C870.947 669.451 854.619 677.015 839.498 685.632C827.687 692.363 816.592 699.748 806.891 708.248C808.019 705.793 809.209 703.372 810.464 700.986C821.138 688.068 834.793 677.149 849.83 667.264C864.335 657.728 880.094 649.174 895.678 640.714L895.698 640.703C901.401 637.607 907.08 634.524 912.665 631.411C916.463 629.293 920.218 627.162 923.908 625.002ZM924.308 623.607C930.007 620.253 935.533 616.836 940.803 613.305C938.69 609.336 936.436 605.366 934.07 601.392C928.85 604.939 923.454 608.417 917.961 611.868C918.772 613.326 919.576 614.783 920.37 616.238C921.712 618.697 923.026 621.153 924.308 623.607ZM917.112 612.4C917.914 613.84 918.708 615.279 919.492 616.717C920.84 619.187 922.159 621.652 923.445 624.114C919.752 626.276 915.989 628.412 912.178 630.537C906.629 633.63 900.979 636.698 895.299 639.781L895.293 639.785L895.287 639.788L895.28 639.792L895.274 639.795L895.267 639.799L895.254 639.806L895.235 639.816C879.638 648.283 863.824 656.868 849.28 666.429C835.64 675.396 823.089 685.239 812.85 696.68C823.28 678.872 839.034 664.208 856.985 651.015C870.973 640.735 886.263 631.369 901.384 622.107L901.386 622.106L901.387 622.105L901.389 622.104L901.413 622.089C906.688 618.859 911.942 615.64 917.112 612.4ZM917.473 610.994C922.967 607.541 928.353 604.067 933.555 600.532C931.013 596.29 928.345 592.043 925.585 587.789C919.173 577.905 912.276 567.993 905.326 558.014L905.043 557.608C898.188 547.765 891.286 537.855 884.762 527.853C871.536 507.577 859.844 486.894 853.209 465.549C853.156 465.38 853.104 465.211 853.052 465.041C854.464 473.925 855.958 481.996 857.588 489.107C862.551 510.759 872.586 532.175 884.218 553.371C889.954 563.823 896.074 574.214 902.162 584.551L902.167 584.559L902.416 584.981C907.546 593.691 912.65 602.363 917.473 610.994ZM851.913 457.597C852.657 460.262 853.407 462.816 854.164 465.252C860.758 486.464 872.39 507.056 885.599 527.307C892.114 537.294 899.008 547.192 905.865 557.039L905.866 557.04L905.867 557.041L906.147 557.443C913.095 567.42 920.002 577.345 926.424 587.245C929.176 591.487 931.841 595.727 934.383 599.967C939.43 596.518 944.298 593.007 948.918 589.398C943.175 579.766 936.471 570.199 929.255 560.627C922.163 551.22 914.584 541.819 906.948 532.354L906.638 531.969C899.106 522.633 891.523 513.234 884.31 503.716C870.997 486.148 858.927 468.153 850.743 449.353C851.128 452.163 851.518 454.912 851.913 457.597ZM850.23 445.563C858.351 465.48 871.007 484.506 885.107 503.112C892.309 512.616 899.883 522.004 907.418 531.342L907.418 531.343L907.419 531.344L907.419 531.345L907.727 531.726C915.361 541.189 922.95 550.602 930.053 560.025C937.246 569.567 943.952 579.128 949.712 588.775C954.24 585.204 958.524 581.535 962.496 577.733C954.403 562.936 943.319 548.602 930.97 534.343C923.257 525.437 915.06 516.571 906.8 507.645L906.464 507.282C898.317 498.477 890.115 489.613 882.275 480.606C869.673 466.128 857.99 451.264 848.949 435.646C849.372 439.023 849.799 442.331 850.23 445.563ZM847.658 433.379C848.008 436.202 848.359 438.978 848.713 441.704C847.915 439.609 847.116 437.428 846.315 435.165C845.771 432.771 845.227 430.324 844.684 427.826C845.636 429.688 846.628 431.539 847.658 433.379ZM848.627 433.062C857.77 449.357 869.88 464.844 883.029 479.949C890.858 488.943 899.049 497.796 907.198 506.602L907.202 506.606L907.534 506.965C915.792 515.89 924 524.768 931.726 533.688C944.012 547.875 955.101 562.193 963.242 577.013C966.8 573.556 970.1 569.988 973.091 566.281C963.987 546.585 948.605 528.335 930.98 510.356C922.733 501.943 914.004 493.599 905.21 485.199L904.852 484.857C896.178 476.572 887.445 468.231 879.064 459.724C867.508 447.996 856.61 435.941 847.441 423.263C847.835 426.587 848.23 429.855 848.627 433.062ZM846.235 421.577C846.599 424.669 846.963 427.713 847.329 430.707C846.101 428.436 844.932 426.148 843.826 423.843C843.241 421.1 842.655 418.299 842.068 415.445C843.409 417.506 844.799 419.549 846.235 421.577ZM847.198 421.207C856.535 434.361 867.787 446.853 879.776 459.022C888.145 467.517 896.867 475.848 905.544 484.136L905.547 484.138L905.901 484.476C914.693 492.874 923.433 501.229 931.694 509.656C949.187 527.5 964.576 545.708 973.788 565.408C976.623 561.816 979.167 558.093 981.378 554.217C972.628 529.213 952.799 507.582 929.527 486.585C920.78 478.692 911.556 470.898 902.264 463.052L901.887 462.733C892.721 454.995 883.494 447.204 874.608 439.226C864.432 430.091 854.695 420.704 845.999 410.856C846.4 414.361 846.799 417.813 847.198 421.207ZM844.842 409.536C845.225 412.901 845.607 416.218 845.989 419.484C844.438 417.249 842.943 414.994 841.51 412.718C840.883 409.64 840.254 406.501 839.622 403.307C841.312 405.405 843.054 407.481 844.842 409.536ZM845.8 409.114C854.695 419.312 864.739 429.023 875.276 438.482C884.15 446.449 893.367 454.231 902.535 461.973L902.91 462.288C912.2 470.132 921.435 477.937 930.197 485.842C953.217 506.613 973.04 528.142 982.027 553.056C984.082 549.31 985.826 545.42 987.219 541.366C980.268 510.229 955.826 485.752 926.549 462.481C917.326 455.15 907.634 447.947 897.87 440.697L897.473 440.402C887.842 433.251 878.146 426.051 868.78 418.644C860.345 411.975 852.173 405.133 844.546 397.999C844.967 401.757 845.385 405.464 845.8 409.114ZM843.422 396.941C843.831 400.601 844.237 404.214 844.641 407.775C842.773 405.599 840.957 403.4 839.201 401.176C838.535 397.79 837.864 394.343 837.188 390.84C839.218 392.899 841.297 394.932 843.422 396.941ZM844.375 396.466C852.214 403.862 860.659 410.948 869.4 417.86C878.75 425.254 888.43 432.442 898.061 439.593L898.061 439.594L898.062 439.594L898.062 439.594L898.063 439.595L898.063 439.595L898.065 439.596L898.073 439.602L898.466 439.894C908.228 447.143 917.933 454.355 927.171 461.698C955.955 484.577 980.317 508.802 987.82 539.537C988.988 535.813 989.863 531.952 990.415 527.936C986.573 489.583 957.447 462.883 921.98 438.198C912.31 431.468 902.18 424.895 891.976 418.28L891.561 418.011C881.495 411.486 871.361 404.917 861.543 398.12C855.219 393.742 849.023 389.267 843.056 384.646C843.153 385.517 843.25 386.385 843.347 387.251L843.35 387.282C843.695 390.374 844.036 393.436 844.375 396.466ZM841.954 383.789C842.087 384.976 842.218 386.158 842.35 387.336L842.355 387.385V387.386C842.655 390.079 842.953 392.75 843.249 395.398C841.063 393.311 838.926 391.2 836.845 389.061C836.144 385.417 835.437 381.715 834.723 377.959C837.089 379.931 839.501 381.873 841.954 383.789ZM842.902 383.26C849.084 388.077 855.525 392.737 862.112 397.298C871.916 404.085 882.037 410.646 892.105 417.172L892.109 417.174L892.52 417.441C902.722 424.055 912.866 430.636 922.551 437.377C956.725 461.162 985.349 487.028 990.88 523.607C991.089 520.913 991.156 518.151 991.074 515.317C989.785 471.053 957.14 443.377 917.078 418.494C907.069 412.278 896.61 406.243 886.074 400.17L885.646 399.923C875.253 393.932 864.79 387.901 854.631 381.626C850.291 378.946 846.005 376.22 841.803 373.433C842.174 376.738 842.54 380.015 842.902 383.26ZM840.715 372.709C841.081 375.966 841.442 379.196 841.799 382.397C839.296 380.429 836.836 378.434 834.428 376.408C833.851 373.366 833.268 370.289 832.679 367.181C835.317 369.053 837.998 370.895 840.715 372.709ZM840.569 371.408C840.394 369.855 840.218 368.297 840.041 366.733C834.389 316.83 827.448 261.104 815.737 209.162C804.024 157.212 787.548 109.097 762.855 74.3901C742.556 45.8582 716.717 26.4043 683.394 21.3119C700.524 29.5467 715.608 42.2589 728.961 58.2922C756.347 91.1759 776.478 138.052 792.118 189.003C807.76 239.962 818.923 295.047 828.351 344.377C829.675 351.309 830.966 358.127 832.229 364.803L832.411 365.761C835.086 367.674 837.807 369.554 840.569 371.408ZM676.842 19.5016C667.395 15.6642 657.347 13.1673 646.648 12.189C651.664 14.1161 656.542 16.4138 661.287 19.0556C666.638 18.881 671.821 19.0352 676.842 19.5016ZM662.972 20.0115C668.854 19.8939 674.529 20.1799 680.007 20.847C698.218 28.9364 714.153 42.0754 728.192 58.9322C755.451 91.6624 775.535 138.386 791.162 189.296C806.786 240.198 817.941 295.236 827.368 344.565C828.683 351.446 829.965 358.217 831.22 364.85L831.233 364.915C828.912 363.239 826.629 361.538 824.388 359.809C823.086 354.889 821.764 349.873 820.421 344.773C818.69 338.202 816.922 331.492 815.112 324.671C802.233 276.127 787.216 221.966 768.023 172.236C748.832 122.513 725.449 77.1718 695.814 46.2994C685.634 35.6951 674.714 26.7955 662.972 20.0115ZM659.35 19.1344C654.062 16.2855 648.61 13.8671 642.987 11.9153C637.75 11.6102 632.36 11.6638 626.811 12.0961C632.362 14.703 637.774 17.7596 643.051 21.2272C648.243 20.1233 653.669 19.4145 659.35 19.1344ZM644.224 22.0063C649.491 20.9419 654.999 20.2864 660.771 20.0741C660.862 20.0708 660.953 20.0675 661.043 20.0644C673.24 26.8915 684.558 36.018 695.092 46.9919C724.589 77.7202 747.915 122.913 767.09 172.596C786.262 222.27 801.267 276.385 814.146 324.927C815.954 331.743 817.721 338.45 819.452 345.02C820.68 349.685 821.891 354.281 823.085 358.797C821.064 357.216 819.078 355.611 817.132 353.981C814.104 345.132 810.987 335.892 807.769 326.353C805.598 319.915 803.38 313.34 801.112 306.657C784.975 259.097 766.326 206.077 743.809 157.76C721.295 109.451 694.896 65.7975 663.238 37.0026C657.102 31.4214 650.767 26.3977 644.224 22.0063ZM641.684 21.5284C636.201 17.9792 630.574 14.8784 624.798 12.2689C623.961 12.3474 623.12 12.4344 622.276 12.5301C617.928 13.0228 613.75 13.7577 609.731 14.7205C615.721 18.0049 621.582 21.7901 627.316 26.026C631.899 24.1774 636.682 22.668 641.684 21.5284ZM628.26 26.728C632.912 24.8869 637.769 23.3982 642.853 22.2937C649.641 26.7831 656.208 31.9602 662.565 37.7424C694.075 66.4028 720.407 109.913 742.902 158.183C765.394 206.445 784.029 259.42 800.165 306.978C802.409 313.591 804.605 320.1 806.756 326.477L806.786 326.568L806.819 326.665C809.846 335.638 812.784 344.349 815.645 352.723C814.023 351.338 812.43 349.934 810.869 348.51C805.875 336.581 800.655 323.773 795.188 310.36C792.623 304.068 790.004 297.642 787.328 291.111C768.289 244.637 746.405 192.868 720.952 146.032C695.502 99.2032 666.46 57.2607 633.087 30.473C631.488 29.1895 629.879 27.9408 628.26 26.728ZM626.234 26.4707C620.383 22.1806 614.404 18.365 608.293 15.0766C603.274 16.3592 598.507 18.0016 593.968 19.9754C596.939 21.8193 599.886 23.7769 602.809 25.842C606.168 28.2152 609.495 30.7306 612.792 33.379C617.077 30.7419 621.55 28.428 626.234 26.4707ZM613.619 34.0469C617.939 31.4097 622.45 29.1046 627.175 27.1656C628.949 28.4849 630.711 29.8478 632.461 31.2528C665.679 57.9155 694.644 99.7186 720.073 146.51C745.498 193.293 767.365 245.018 786.403 291.49C789.076 298.015 791.694 304.438 794.258 310.728L794.258 310.729C799.418 323.388 804.361 335.515 809.103 346.878C807.675 345.541 806.276 344.186 804.906 342.812C797.664 328.38 789.946 312.332 781.743 295.278C778.798 289.155 775.79 282.902 772.72 276.547C750.871 231.326 725.858 180.994 697.584 135.804C672.259 95.3274 644.297 58.9411 613.619 34.0469ZM611.892 33.9392C608.701 31.3838 605.481 28.9542 602.232 26.6587C599.134 24.4701 596.01 22.4034 592.86 20.4659C588.096 22.6121 583.588 25.1269 579.308 27.9765C586.048 32.5702 592.702 37.6821 599.267 43.2454C603.291 39.8254 607.491 36.711 611.892 33.9392ZM600.039 43.9023C604.08 40.478 608.298 37.3661 612.718 34.6036C643.372 59.3973 671.356 95.7688 696.737 136.335C724.979 181.474 749.971 231.762 771.82 276.982C774.879 283.314 777.877 289.548 780.814 295.654L780.838 295.704C788.513 311.662 795.77 326.75 802.613 340.465C801.833 339.648 801.062 338.825 800.303 337.996C800.175 337.855 800.046 337.714 799.917 337.572C799.811 337.456 799.705 337.339 799.599 337.222C799.362 336.961 799.125 336.698 798.887 336.434C789.169 320.141 778.557 301.204 767.108 280.775L767.096 280.753L767.037 280.648L766.972 280.532C763.694 274.682 760.347 268.71 756.933 262.644C732.303 218.875 704.196 170.203 673.156 126.867C650.317 94.9801 625.873 65.9593 600.039 43.9023ZM598.498 43.9045C591.891 38.312 585.195 33.1805 578.415 28.5784C574.031 31.5672 569.89 34.9101 565.963 38.5699C573.008 43.6723 579.991 49.2564 586.904 55.252C590.607 51.1866 594.463 47.3915 598.498 43.9045ZM587.659 55.9084C591.368 51.8374 595.23 48.0421 599.269 44.5601C625.055 66.5496 649.485 95.5363 672.343 127.45C703.349 170.737 731.432 219.367 756.062 263.134C759.498 269.242 762.868 275.255 766.17 281.146L766.232 281.257C776.629 299.81 786.346 317.15 795.335 332.403C794.458 331.389 793.571 330.351 792.675 329.289C780.361 311.866 766.502 290.45 751.32 266.989L751.319 266.988C747.628 261.283 743.858 255.458 740.013 249.539C712.652 207.424 681.511 160.635 647.78 119.359C628.521 95.7898 608.407 74.0048 587.659 55.9084ZM586.233 55.9937C579.295 49.9767 572.288 44.3776 565.221 39.2674C562.081 42.2456 559.079 45.4276 556.2 48.7942C563.444 54.1761 570.644 59.9928 577.787 66.1746C580.516 62.6265 583.327 59.2267 586.233 55.9937ZM578.544 66.831C581.273 63.2801 584.083 59.8803 586.988 56.6499C607.677 74.6937 627.757 96.4356 647.006 119.991C680.699 161.222 711.815 207.97 739.174 250.084C743.016 255.998 746.784 261.821 750.475 267.524C762.788 286.551 774.243 304.253 784.715 319.576C770.919 302.301 755.123 280.481 737.715 256.433L737.712 256.429L737.711 256.428C733.726 250.924 729.658 245.303 725.509 239.593C695.987 198.964 662.445 153.865 626.605 114.405C610.981 97.2023 594.913 81.0636 578.544 66.831ZM577.179 66.9703C570.02 60.7733 562.807 54.9458 555.551 49.5581C538.375 69.9345 525.581 96.9083 513.969 126.294C508.959 138.973 504.174 152.087 499.352 165.301L499.351 165.303L499.349 165.309C498.625 167.293 497.901 169.279 497.174 171.266C491.61 186.489 485.946 201.775 479.791 216.596C467.483 246.232 453.196 274.042 433.767 295.81C427.938 302.34 421.686 308.217 415.11 313.603C427.76 306.346 439.733 297.934 450.589 287.49C471.495 267.378 487.793 240.852 502.301 212.27C509.553 197.981 516.354 183.188 523.059 168.432C523.933 166.508 524.806 164.585 525.677 162.663C531.49 149.851 537.266 137.121 543.233 124.843C553.554 103.606 564.466 83.68 577.179 66.9703ZM409.69 316.623C417.994 310.254 425.833 303.197 433.021 295.144C452.339 273.501 466.574 245.813 478.868 216.212C485.014 201.413 490.671 186.145 496.235 170.923C496.955 168.955 497.673 166.987 498.39 165.021L498.408 164.972L498.408 164.97L498.41 164.967C503.232 151.751 508.022 138.621 513.039 125.927C524.635 96.5796 537.463 69.485 554.746 48.9619C548.041 44.0155 541.3 39.4463 534.532 35.3096C511.866 57.9995 497.965 91.8471 486.147 129.28C482.042 142.281 478.193 155.701 474.314 169.223L474.312 169.227C473.73 171.257 473.147 173.29 472.563 175.323C468.085 190.9 463.512 206.547 458.416 221.764C448.227 252.194 435.935 280.942 418.088 304.025C413.874 309.475 409.369 314.54 404.629 319.295C406.326 318.421 408.013 317.531 409.69 316.623ZM401.686 320.792C407.222 315.431 412.453 309.677 417.297 303.413C435.041 280.463 447.291 251.841 457.468 221.447C462.556 206.252 467.124 190.624 471.602 175.047C471.835 174.234 472.069 173.42 472.302 172.608L472.65 171.398L473.349 168.958L473.35 168.956L473.351 168.954L473.351 168.953C477.23 155.431 481.084 141.995 485.193 128.979C496.975 91.6596 510.89 57.6634 533.653 34.7743C527.314 30.9365 520.953 27.4798 514.577 24.4496C484.956 48.1554 470.674 88.6452 459.671 133.99C456.456 147.239 453.525 160.887 450.57 174.64L450.57 174.643L450.57 174.644L450.569 174.646L450.569 174.647C450.125 176.712 449.681 178.779 449.236 180.847C445.823 196.692 442.32 212.613 438.267 228.14C430.161 259.19 419.844 288.704 403.601 312.942C401.09 316.689 398.443 320.279 395.678 323.734C397.692 322.771 399.695 321.791 401.686 320.792ZM394.215 325.536C395.893 324.744 397.565 323.942 399.229 323.126C397.849 324.414 396.451 325.679 395.037 326.923C393.597 327.856 392.147 328.776 390.688 329.683C391.882 328.322 393.059 326.94 394.215 325.536ZM393.586 324.727C396.811 320.799 399.881 316.696 402.77 312.385C418.92 288.286 429.203 258.901 437.299 227.887C441.347 212.383 444.845 196.481 448.258 180.637C448.699 178.591 449.138 176.545 449.577 174.502L449.59 174.443L449.59 174.441C452.545 160.686 455.481 147.02 458.699 133.754C469.65 88.6223 483.915 47.956 513.569 23.9743L513.409 23.8994C507.94 21.3459 502.46 19.1081 496.976 17.2147C459.254 40.9296 445.24 87.3493 435.889 139.829C433.497 153.252 431.413 167.057 429.312 180.966L429.312 180.967L429.312 180.968L429.312 180.969L429.312 180.97L429.311 180.971L429.311 180.972C428.996 183.059 428.68 185.149 428.363 187.241C425.934 203.266 423.42 219.372 420.332 235.12C414.156 266.611 405.679 296.705 390.961 321.899C389.843 323.812 388.691 325.69 387.505 327.534C389.541 326.612 391.569 325.677 393.586 324.727ZM386.494 329.087C388.362 328.248 390.224 327.398 392.078 326.536C390.651 328.225 389.196 329.882 387.713 331.508C386.095 332.488 384.468 333.454 382.831 334.408C384.082 332.665 385.304 330.892 386.494 329.087ZM385.819 328.294C387.296 326.045 388.723 323.747 390.098 321.394C404.731 296.345 413.182 266.381 419.35 234.928C422.434 219.203 424.945 203.116 427.375 187.091C427.691 185.001 428.007 182.913 428.322 180.826C430.423 166.915 432.51 153.093 434.905 139.654C444.196 87.5083 458.148 40.8946 495.759 16.8004C490.598 15.0671 485.433 13.6403 480.267 12.5438C432.685 35.6965 419.531 87.7685 412.677 147.068C411.112 160.612 409.876 174.519 408.631 188.532L408.631 188.534L408.618 188.676C408.435 190.732 408.253 192.791 408.068 194.851C406.625 210.995 405.101 227.225 402.983 243.132C398.764 274.82 392.18 305.263 379.133 331.245C381.37 330.273 383.599 329.29 385.819 328.294ZM378.422 332.644C380.548 331.723 382.669 330.794 384.782 329.853C383.456 331.82 382.093 333.75 380.695 335.644C378.829 336.715 376.952 337.772 375.065 338.817C376.224 336.795 377.344 334.738 378.422 332.644ZM377.696 331.868C377.828 331.611 377.959 331.354 378.089 331.096C391.161 305.198 397.761 274.773 401.992 243C404.107 227.117 405.629 210.905 407.072 194.762C407.26 192.662 407.447 190.563 407.633 188.466L407.634 188.459L407.634 188.452L407.635 188.448L407.635 188.446C408.88 174.434 410.116 160.512 411.684 146.953C418.479 88.1577 431.505 35.9004 478.673 12.216C473.759 11.238 468.846 10.5609 463.935 10.2051C461.298 11.2246 458.653 12.3519 455.999 13.5898C403.563 38.0563 392.808 93.2058 389.508 155.898C388.791 169.513 388.427 183.468 388.059 197.53L388.059 197.537C388.004 199.648 387.949 201.761 387.892 203.876C387.459 220.079 386.952 236.372 385.832 252.381C383.785 281.618 379.688 309.936 370.236 335.057C371.659 334.455 373.079 333.851 374.497 333.244C375.565 332.787 376.631 332.329 377.696 331.868ZM369.743 336.351C371.461 335.625 373.178 334.896 374.891 334.163C375.584 333.867 376.277 333.569 376.969 333.271C375.813 335.473 374.611 337.632 373.366 339.754C371.225 340.928 369.073 342.089 366.913 343.239C367.075 342.867 367.237 342.494 367.397 342.121C368.213 340.218 368.994 338.294 369.743 336.351ZM368.962 335.595C378.604 310.391 382.765 281.862 384.834 252.311C385.953 236.326 386.46 220.051 386.892 203.85C386.949 201.737 387.004 199.626 387.059 197.517V197.515C387.427 183.451 387.792 169.478 388.509 155.845C391.808 93.1865 402.553 37.4236 455.577 12.6836C457.585 11.7465 459.589 10.8722 461.589 10.0597C456.861 9.81614 452.136 9.87364 447.418 10.2504C439.582 12.5507 431.728 15.8082 423.866 20.1045C373.09 47.8525 365.86 103.574 366.549 166.349C366.699 179.982 367.221 193.933 367.748 207.989L367.748 207.991L367.748 207.996C367.827 210.106 367.906 212.219 367.984 214.333C368.581 230.53 369.111 246.823 369.009 262.87C368.841 289.417 366.947 315.318 360.767 339.039C360.866 338.998 360.964 338.957 361.063 338.915L361.064 338.915C363.701 337.809 366.335 336.705 368.962 335.595ZM360.445 340.259C360.773 340.122 361.101 339.984 361.429 339.847L361.456 339.835C363.792 338.855 366.128 337.876 368.46 336.893C367.823 338.518 367.162 340.13 366.478 341.727C366.152 342.488 365.82 343.245 365.483 343.998C363.868 344.852 362.249 345.701 360.626 346.547C359.839 346.957 359.05 347.367 358.261 347.775C359.041 345.297 359.768 342.791 360.445 340.259ZM359.605 339.527C365.908 315.726 367.839 289.658 368.009 262.864C368.11 246.84 367.582 230.567 366.985 214.37C366.91 212.338 366.834 210.307 366.758 208.278L366.754 208.188L366.751 208.111L366.749 208.04V208.039V208.039V208.039V208.039V208.038V208.038V208.038V208.037C366.222 193.979 365.699 180.01 365.549 166.36C364.86 103.618 372.042 47.2853 423.387 19.227C429.769 15.7394 436.145 12.931 442.511 10.7582C427.505 12.6694 412.575 17.8799 397.815 26.9772C348.556 57.3383 344.245 113.361 348.211 176.015C349.072 189.622 350.323 203.527 351.582 217.538L351.583 217.542C351.772 219.645 351.961 221.751 352.149 223.858C353.591 240.002 354.97 256.245 355.707 272.276C356.819 296.486 356.467 320.234 352.644 342.455C354.965 341.474 357.286 340.499 359.605 339.527ZM352.438 343.628C354.717 342.664 356.998 341.706 359.277 340.749C358.574 343.336 357.818 345.895 357.005 348.425C354.959 349.482 352.907 350.536 350.852 351.589C351.434 348.959 351.962 346.305 352.438 343.628ZM351.339 344.094C350.845 346.815 350.299 349.511 349.695 352.182L347.663 353.222L347.662 353.223C325.263 364.689 302.639 376.27 282.359 392.063C258.029 411.009 228.978 427.426 198.988 443.332C191.491 447.307 183.936 451.251 176.381 455.195L176.376 455.198L176.368 455.202L176.367 455.202C153.716 467.026 131.074 478.845 110.068 491.498C54.0441 525.242 9.43043 565.04 7.08867 627.037C7.0522 628.002 7.02898 628.961 7.01886 629.913C1.88877 616.729 -0.178409 602.278 1.66252 586.173C8.64595 525.079 55.7152 488.999 114.098 459.631C135.976 448.626 159.41 438.579 182.886 428.513L182.887 428.513L182.897 428.508C190.736 425.147 198.58 421.784 206.372 418.383C237.49 404.8 267.773 390.608 293.551 373.514C311.795 361.415 331.502 352.507 351.339 344.094ZM8.02231 632.384C7.9987 630.638 8.02021 628.868 8.08796 627.075C10.409 565.627 54.6006 526.074 110.583 492.355C131.561 479.719 154.164 467.921 176.807 456.101L176.808 456.101L176.809 456.1C184.373 452.151 191.942 448.2 199.456 444.215C229.452 428.306 258.57 411.855 282.973 392.852C303.172 377.122 325.698 365.591 348.097 354.124L348.098 354.123L349.402 353.456C348.851 355.811 348.256 358.145 347.612 360.458C343.841 362.768 340.047 365.061 336.247 367.358L336.247 367.358L336.246 367.358L336.242 367.361L336.242 367.361L336.242 367.361L336.241 367.361C314.706 380.377 292.955 393.523 273.837 410.706C250.903 431.319 223.081 449.742 194.285 467.721C187.084 472.218 179.82 476.687 172.558 481.156L172.556 481.157C150.795 494.547 129.042 507.932 108.98 522.033C60.3793 556.191 21.5206 594.669 16.3257 647.905C13.0848 642.925 10.2972 637.761 8.02231 632.384ZM8.09364 635.042C8.59057 647.375 11.3713 658.533 16.0309 668.74C15.9283 667.34 15.8532 665.924 15.8062 664.49C15.6383 659.366 15.769 654.373 16.1802 649.503C13.0778 644.853 10.3658 640.039 8.09364 635.042ZM17.0785 650.83C16.7488 655.268 16.6533 659.809 16.8057 664.457C16.8821 666.79 17.0337 669.076 17.258 671.319C19.7321 676.315 22.6622 681.079 25.9984 685.641C26.071 678.408 26.7745 671.401 28.0493 664.6C24.0204 660.164 20.3455 655.581 17.0785 650.83ZM28.2863 663.371C37.011 619.369 69.6771 583.986 109.964 551.38C129.027 535.953 149.823 521.125 170.629 506.292C177.572 501.342 184.516 496.391 191.396 491.417C218.908 471.529 245.419 451.264 266.905 429.146C284.815 410.708 305.626 396.12 326.231 381.675L326.232 381.675C330.22 378.879 334.201 376.088 338.151 373.276C340.533 371.581 342.903 369.879 345.258 368.162C345.799 366.543 346.315 364.91 346.806 363.26C346.943 362.799 347.078 362.338 347.211 361.876C343.749 363.992 340.273 366.093 336.794 368.196L336.765 368.214L336.761 368.216L336.739 368.229C315.203 381.246 293.547 394.336 274.506 411.449C251.502 432.125 223.615 450.587 194.815 468.569C187.625 473.059 180.378 477.518 173.136 481.974L173.101 481.996L173.067 482.017L173.061 482.02L173.058 482.022C151.304 495.408 129.59 508.769 109.555 522.851C60.6156 557.248 21.8745 595.823 17.2071 649.238C20.4834 654.118 24.1954 658.82 28.2863 663.371ZM29.1258 664.297C37.5617 620.314 70.1148 584.918 110.593 552.158C129.629 536.751 150.39 521.95 171.188 507.121L171.189 507.121C178.137 502.167 185.089 497.211 191.982 492.228C219.499 472.336 246.071 452.028 267.622 429.842C285.461 411.479 306.181 396.953 326.786 382.508L326.795 382.501L326.798 382.499C330.788 379.703 334.772 376.909 338.731 374.091C340.728 372.67 342.718 371.243 344.698 369.806C344.091 371.558 343.455 373.292 342.792 375.01C338.386 378.784 333.894 382.483 329.357 386.154C325.588 389.204 321.788 392.234 317.98 395.271L317.979 395.271L317.979 395.271L317.979 395.272L317.978 395.272L317.978 395.272L317.978 395.272L317.977 395.273L317.976 395.273C298.302 410.961 278.43 426.805 261.692 446.311C241.611 469.713 216.4 491.574 190.167 513.12C183.61 518.506 176.989 523.872 170.369 529.238L170.356 529.248L170.356 529.248C150.505 545.336 130.662 561.418 112.588 577.991C79.6714 608.174 52.5301 640.067 41.8167 676.756C37.284 672.722 33.0377 668.576 29.1258 664.297ZM28.897 665.526C27.6431 672.456 26.9874 679.599 26.9926 686.979C30.156 691.167 33.6638 695.184 37.4762 699.051C38.1925 691.791 39.5607 684.721 41.5107 677.821C37.0172 673.84 32.7969 669.749 28.897 665.526ZM402.27 321.618C402.996 321.253 403.721 320.885 404.444 320.515C403.169 321.43 401.885 322.331 400.592 323.22C401.154 322.69 401.714 322.156 402.27 321.618ZM849.256 445.822C849.42 447.051 849.585 448.269 849.75 449.476C849.218 447.388 848.687 445.245 848.158 443.048C848.254 443.297 848.35 443.544 848.446 443.79C848.711 444.469 848.981 445.146 849.256 445.822ZM716.024 795.754C713.511 796.537 711.031 797.384 708.589 798.3C708.942 798.032 709.296 797.765 709.651 797.5C713.673 794.502 717.908 791.815 722.326 789.401C720.171 791.455 718.072 793.575 716.024 795.754ZM50.1748 733.279C50.2202 726.487 50.8477 719.825 52.0006 713.28C56.8859 717.123 62.069 720.818 67.4981 724.393C65.7709 730.896 64.5234 737.477 63.8143 744.144C58.9693 740.695 54.4081 737.083 50.1748 733.279ZM64.7521 744.807C65.4331 738.112 66.6623 731.504 68.3803 724.971C74.0735 728.688 80.0316 732.275 86.1957 735.765C84.0638 742.189 82.3479 748.653 81.1048 755.164C75.3752 751.869 69.907 748.428 64.7521 744.807ZM82.0237 755.69C83.2508 749.173 84.9562 742.7 87.0832 736.265C92.156 739.12 97.3655 741.91 102.679 744.652C100.369 750.942 98.4098 757.248 96.8533 763.572C91.752 761.031 86.7989 758.41 82.0237 755.69ZM281.105 846.852C283.294 849.173 285.453 851.552 287.585 853.982C290.57 855.45 293.504 856.96 296.384 858.516C293.726 856.277 291.036 854.12 288.308 852.053C285.965 850.278 283.563 848.546 281.105 846.852ZM289.295 855.949C291.624 858.652 293.922 861.417 296.191 864.233C300.095 865.668 303.939 867.162 307.712 868.723C305.201 866.317 302.662 863.977 300.092 861.713C296.581 859.72 292.979 857.801 289.295 855.949ZM297.405 865.749C299.825 868.786 302.213 871.882 304.573 875.027C308.971 876.175 313.314 877.384 317.592 878.665C314.985 875.921 312.352 873.241 309.687 870.634C305.674 868.931 301.576 867.306 297.405 865.749ZM305.535 876.313C308.07 879.715 310.574 883.172 313.052 886.672C317.822 887.458 322.55 888.302 327.222 889.217C324.5 886.123 321.751 883.089 318.971 880.127C314.562 878.781 310.079 877.514 305.535 876.313ZM320.965 898.097C321.212 898.461 321.459 898.826 321.706 899.191C326.789 899.58 331.842 900.018 336.853 900.522C334.028 897.108 331.18 893.746 328.302 890.449C323.545 889.503 318.728 888.631 313.863 887.82C316.135 891.044 318.385 894.303 320.619 897.588L320.965 898.097ZM322.421 900.249C324.599 903.477 326.761 906.726 328.912 909.987C330.854 910.006 332.794 910.03 334.732 910.06C338.085 910.113 341.429 910.184 344.76 910.279C342.44 907.363 340.107 904.474 337.758 901.619C332.688 901.1 327.572 900.649 322.421 900.249ZM521.953 1052.98C511.345 1053.91 501.314 1053.11 491.758 1050.86C497.098 1050.41 502.216 1049.59 507.13 1048.44C511.978 1050.32 516.915 1051.84 521.953 1052.98ZM525.234 1052.64C519.653 1051.57 514.196 1050.01 508.847 1048.02C513.913 1046.74 518.76 1045.1 523.41 1043.12C528.911 1045.76 534.488 1048 540.154 1049.77C536.443 1050.77 532.599 1051.57 528.615 1052.18C527.482 1052.35 526.354 1052.5 525.234 1052.64ZM541.95 1049.27C536.088 1047.53 530.32 1045.28 524.629 1042.6C529.44 1040.48 534.037 1038.01 538.445 1035.21C544.437 1038.5 550.477 1041.39 556.575 1043.8C551.939 1045.97 547.072 1047.8 541.95 1049.27ZM557.814 1043.21C551.625 1040.81 545.493 1037.91 539.405 1034.6C543.921 1031.67 548.237 1028.41 552.38 1024.85C558.812 1028.63 565.261 1032.06 571.735 1035.04C567.333 1038.11 562.703 1040.85 557.814 1043.21ZM572.68 1034.37C566.163 1031.39 559.665 1027.96 553.179 1024.16C557.283 1020.58 561.216 1016.71 565.004 1012.58C571.821 1016.62 578.631 1020.38 585.434 1023.78C581.401 1027.63 577.159 1031.17 572.68 1034.37ZM586.199 1023.04C579.378 1019.65 572.544 1015.88 565.693 1011.83C568.615 1008.61 571.45 1005.24 574.211 1001.73C574.892 1002.12 575.573 1002.51 576.254 1002.9C582.646 1006.53 589.021 1009.99 595.378 1013.2C592.437 1016.66 589.383 1019.95 586.199 1023.04ZM737.027 781.486C739.532 780.505 742.077 779.587 744.658 778.726C746.463 775.924 748.337 773.182 750.283 770.505C747.998 771.702 745.757 772.958 743.567 774.279C741.316 776.608 739.137 779.012 737.027 781.486ZM746.174 778.227C749.027 777.303 751.922 776.446 754.854 775.649C756.48 772.33 758.184 769.072 759.975 765.88C757.361 767.016 754.795 768.213 752.28 769.479C750.162 772.32 748.128 775.238 746.174 778.227ZM756.139 775.303C759.395 774.439 762.695 773.646 766.029 772.913C767.37 769.143 768.794 765.429 770.311 761.777C767.321 762.861 764.378 764.009 761.491 765.23C759.617 768.516 757.836 771.877 756.139 775.303ZM772.069 771.657C774.14 771.25 776.223 770.863 778.316 770.494C779.303 766.296 780.376 762.146 781.547 758.052C778.178 759.074 774.854 760.159 771.586 761.319C770.023 765.036 768.558 768.82 767.181 772.663C768.802 772.314 770.432 771.979 772.069 771.657ZM779.388 770.306C782.634 769.744 785.903 769.224 789.189 768.736C789.847 764.201 790.591 759.705 791.436 755.258C790.735 755.443 790.035 755.63 789.337 755.82C787.103 756.425 784.885 757.055 782.686 757.71C781.489 761.852 780.394 766.054 779.388 770.306ZM963.346 677.622C961.796 682.005 959.94 686.062 957.805 689.822C958.686 685.468 959.201 681.131 959.385 676.809C961.982 673.704 964.336 670.375 966.422 666.797C965.652 670.376 964.633 673.983 963.346 677.622ZM967.043 663.613C964.85 667.778 962.302 671.616 959.438 675.166C959.545 670.571 959.281 665.992 958.69 661.426C962.213 658.088 965.421 654.496 968.266 650.608C968.204 654.904 967.808 659.237 967.043 663.613ZM968.273 648.881C965.405 652.961 962.138 656.719 958.523 660.202C957.836 655.375 956.786 650.563 955.423 645.762C959.642 642.418 963.539 638.849 967.051 635.008C967.821 639.593 968.243 644.216 968.273 648.881ZM966.833 633.759C963.314 637.679 959.389 641.316 955.123 644.723C953.651 639.707 951.841 634.703 949.75 629.707C954.483 626.364 958.927 622.85 963.01 619.117C964.646 623.961 965.938 628.839 966.833 633.759ZM962.656 618.084C958.571 621.848 954.113 625.391 949.352 628.763C947.202 623.714 944.768 618.672 942.109 613.633C947.117 610.252 951.897 606.76 956.375 603.113C958.795 608.075 960.908 613.062 962.656 618.084ZM955.922 602.191C951.447 605.845 946.662 609.348 941.637 612.744C939.519 608.77 937.263 604.799 934.898 600.828C939.936 597.386 944.805 593.878 949.433 590.266C951.771 594.228 953.944 598.202 955.922 602.191ZM841.955 419.822C841.493 417.614 841.031 415.371 840.567 413.096C839.62 411.589 838.7 410.072 837.809 408.545C838.395 410.533 838.98 412.487 839.562 414.406C840.365 416.27 841.162 418.077 841.955 419.822ZM839.991 410.259C839.419 407.422 838.844 404.536 838.267 401.606C836.912 399.886 835.592 398.151 834.311 396.4C835.071 399.098 835.827 401.745 836.579 404.338L836.64 404.45C837.71 406.402 838.828 408.338 839.991 410.259ZM837.839 399.431C837.203 396.187 836.564 392.89 835.919 389.543C834.22 387.791 832.557 386.02 830.936 384.228C831.805 387.409 832.667 390.533 833.523 393.593C834.913 395.559 836.354 397.504 837.839 399.431ZM835.573 387.742C834.892 384.195 834.206 380.594 833.512 376.944C831.494 375.241 829.511 373.517 827.569 371.768C828.504 375.263 829.43 378.7 830.348 382.073C832.043 383.986 833.787 385.875 835.573 387.742ZM833.216 375.382C832.649 372.4 832.079 369.385 831.503 366.341C829.235 364.716 827.002 363.066 824.807 361.391C825.575 364.291 826.337 367.157 827.092 369.986C829.09 371.81 831.133 373.608 833.216 375.382ZM611.324 6.13142C621.155 6.41224 630.529 8.00337 639.477 10.7647C634.762 10.6372 629.927 10.794 624.967 11.249C620.51 9.24706 615.963 7.53465 611.324 6.13142ZM607.513 6.08836C612.772 7.48524 617.914 9.28189 622.944 11.4504C622.684 11.4783 622.424 11.507 622.163 11.5365C617.383 12.0781 612.807 12.9094 608.422 14.0116C603.42 11.3384 598.328 9.01473 593.144 7.0695C598.038 6.43793 602.826 6.11576 607.513 6.08836ZM591.032 7.36041C596.449 9.29456 601.766 11.6464 606.988 14.3834C602.067 15.6988 597.388 17.3591 592.931 19.3368C587.453 15.9914 581.893 13.0333 576.252 10.5C579.444 9.58175 582.748 8.80197 586.17 8.16744C587.802 7.86481 589.423 7.59597 591.032 7.36041ZM574.774 10.9375C580.541 13.4674 586.225 16.4467 591.827 19.8354C587.114 21.9998 582.651 24.5223 578.413 27.3698C576.185 25.868 573.947 24.423 571.7 23.0373C567.954 20.7271 564.182 18.5815 560.385 16.6116C564.91 14.3836 569.698 12.4828 574.774 10.9375ZM571.175 23.8884C573.299 25.1982 575.414 26.5612 577.522 27.9756C573.162 30.9739 569.043 34.3188 565.135 37.9732C558.764 33.3961 552.343 29.2149 545.877 25.4813C550.07 22.3666 554.528 19.5836 559.278 17.1657C563.271 19.2143 567.236 21.4595 571.175 23.8884ZM545.008 26.1346C551.515 29.8738 557.979 34.0707 564.395 38.6722C561.262 41.6536 558.267 44.8353 555.394 48.1977C548.718 43.2708 542.005 38.715 535.263 34.5847C538.345 31.5575 541.588 28.7346 545.008 26.1346ZM385.27 334.136C383.977 334.901 382.678 335.657 381.374 336.407C380.466 337.634 379.543 338.846 378.607 340.044C379.719 339.231 380.825 338.41 381.923 337.58C383.052 336.447 384.168 335.299 385.27 334.136ZM379.188 337.654C377.495 338.613 375.795 339.56 374.088 340.498C373.121 342.139 372.129 343.756 371.113 345.353C372.616 344.32 374.11 343.276 375.593 342.219C376.814 340.72 378.012 339.199 379.188 337.654ZM372.36 341.443C370.333 342.547 368.297 343.638 366.254 344.721C365.386 346.647 364.483 348.546 363.547 350.418C365.37 349.227 367.182 348.023 368.982 346.805C370.139 345.044 371.265 343.258 372.36 341.443ZM361.088 347.434C360.004 347.999 358.918 348.562 357.831 349.124C357.345 350.627 356.839 352.119 356.312 353.6C356.088 354.233 355.859 354.863 355.627 355.49C357.721 354.174 359.805 352.847 361.875 351.506C362.89 349.529 363.868 347.523 364.807 345.486C363.569 346.138 362.33 346.787 361.088 347.434ZM356.565 349.778C354.568 350.808 352.568 351.834 350.566 352.859C350.04 355.157 349.472 357.435 348.86 359.693C350.656 358.589 352.447 357.48 354.231 356.365C354.621 355.339 355 354.306 355.37 353.265C355.781 352.109 356.179 350.947 356.565 349.778ZM27.2586 704.706C22.3686 695.521 19.0401 685.401 17.5822 674.146C20.0167 678.724 22.8337 683.107 25.9929 687.315C26.007 691.41 26.2227 695.576 26.6507 699.82C26.8175 701.474 27.0204 703.102 27.2586 704.706ZM389.659 331.493C389.225 331.76 388.79 332.025 388.354 332.289C388.038 332.636 387.72 332.98 387.402 333.324C388.158 332.718 388.911 332.108 389.659 331.493ZM843.382 426.541C843.213 425.755 843.043 424.964 842.873 424.168C842.796 424.007 842.719 423.845 842.642 423.683C842.573 423.537 842.504 423.392 842.435 423.246L842.297 422.951C842.216 422.779 842.136 422.608 842.056 422.435C842.499 423.827 842.941 425.195 843.382 426.541ZM728.494 785.151C730.646 784.138 732.833 783.181 735.054 782.275C736.731 780.263 738.452 778.294 740.218 776.373C736.159 779.008 732.287 781.882 728.633 785.031L728.494 785.151ZM29.2519 710.193C31.6706 714.118 34.3813 717.866 37.3568 721.455C37.636 724.694 38.0442 727.97 38.5869 731.286C38.935 733.413 39.3409 735.493 39.803 737.528C34.9511 729.349 31.3593 720.293 29.2519 710.193ZM348.47 361.105C348.241 361.921 348.006 362.735 347.764 363.545C347.405 364.754 347.031 365.955 346.644 367.148C348.17 366.029 349.689 364.904 351.2 363.771C352.045 361.844 352.857 359.893 353.632 357.918C352.167 358.83 350.698 359.737 349.227 360.641C348.974 360.796 348.722 360.951 348.47 361.105ZM355.046 357.035C354.334 358.896 353.59 360.735 352.816 362.552C354.577 361.219 356.326 359.874 358.06 358.515C359.048 356.798 360.009 355.06 360.941 353.299C358.985 354.555 357.019 355.8 355.046 357.035ZM362.642 352.201C361.83 353.777 360.995 355.335 360.137 356.875C361.581 355.726 363.015 354.566 364.437 353.394C365.486 351.944 366.515 350.477 367.523 348.991C365.905 350.071 364.277 351.141 362.642 352.201ZM369.708 347.522C368.961 348.656 368.203 349.778 367.433 350.891C368.416 350.058 369.393 349.219 370.363 348.373C371.301 347.313 372.23 346.244 373.146 345.163C372.005 345.956 370.859 346.742 369.708 347.522ZM376.282 342.956L376.162 343.104L376.008 343.292C376.221 343.094 376.434 342.895 376.646 342.696C376.525 342.783 376.404 342.87 376.282 342.956ZM544.063 25.5952C540.667 28.201 537.445 31.0246 534.382 34.0474C528.094 30.2309 521.781 26.7865 515.451 23.7584C518.773 21.1632 522.285 18.7762 526.005 16.6139C530.509 18.5319 534.995 20.6883 539.463 23.066C540.999 23.8832 542.532 24.7265 544.063 25.5952ZM558.176 16.6056C553.484 19.0397 549.078 21.828 544.93 24.9378C543.267 23.9896 541.602 23.0711 539.933 22.1832C535.671 19.9149 531.39 17.8462 527.092 15.9919C531.564 13.472 536.331 11.2721 541.421 9.41975C547.056 11.4129 552.642 13.8197 558.176 16.6056ZM573.363 10.3282C568.4 11.9025 563.713 13.8165 559.278 16.043C553.872 13.2909 548.414 10.8963 542.908 8.89168C545.603 7.9582 548.387 7.1205 551.263 6.3825C553.453 5.82073 555.627 5.32295 557.783 4.88783C563.042 6.32645 568.236 8.14924 573.363 10.3282ZM589.011 6.65974C588.007 6.82175 587 6.99655 585.987 7.18423C582.123 7.9007 578.409 8.80043 574.836 9.8737C569.941 7.74267 564.985 5.93235 559.969 4.4672C564.733 3.59477 569.416 3.0293 574.018 2.75644C579.098 3.69731 584.095 5.00641 589.011 6.65974ZM603.788 5.17064C599.648 5.3298 595.43 5.71476 591.133 6.33528C586.877 4.82595 582.561 3.5718 578.182 2.58859C587.01 2.40101 595.54 3.29645 603.788 5.17064ZM823.508 360.393C821.557 358.884 819.638 357.353 817.755 355.799C818.666 358.458 819.57 361.081 820.466 363.666C822.177 365.375 823.929 367.06 825.72 368.723C825.576 368.183 825.432 367.642 825.288 367.1C825.128 366.502 824.969 365.902 824.809 365.301C824.377 363.676 823.944 362.04 823.508 360.393ZM826.201 370.527C824.504 368.973 822.84 367.401 821.21 365.807C822.311 368.969 823.4 372.07 824.478 375.107C825.892 376.878 827.349 378.628 828.846 380.358C827.972 377.135 827.091 373.856 826.201 370.527ZM829.444 382.561C828.093 381.033 826.772 379.49 825.484 377.931C826.435 380.591 827.377 383.198 828.312 385.75C828.501 386.053 828.69 386.354 828.879 386.653C829.819 388.145 830.79 389.625 831.788 391.093C831.013 388.298 830.231 385.452 829.444 382.561ZM832.606 394.029C831.688 392.729 830.792 391.42 829.918 390.102C830.595 391.921 831.268 393.71 831.937 395.466C832.741 397.067 833.539 398.624 834.33 400.135C833.758 398.129 833.184 396.093 832.606 394.029ZM835.649 404.722C835.523 404.491 835.396 404.258 835.269 404.025C835.389 404.324 835.508 404.623 835.627 404.92C835.723 405.158 835.818 405.395 835.913 405.632C835.825 405.329 835.737 405.026 835.649 404.722ZM956.714 601.54C954.734 597.557 952.561 593.593 950.227 589.644C954.74 586.09 959.016 582.435 962.99 578.644C965.086 582.539 966.972 586.467 968.617 590.435C964.987 594.306 960.998 597.995 956.714 601.54ZM963.455 617.34C961.696 612.346 959.581 607.389 957.169 602.462C961.427 598.948 965.404 595.291 969.033 591.451C970.974 596.258 972.559 601.124 973.732 606.061C970.677 610.044 967.232 613.791 963.455 617.34ZM967.673 632.808C966.75 627.956 965.446 623.148 963.814 618.374C967.548 614.893 970.969 611.221 974.022 607.32C975.048 611.923 975.714 616.589 975.976 621.327C973.575 625.412 970.792 629.227 967.673 632.808ZM969.253 647.45C969.148 642.948 968.685 638.487 967.904 634.061C970.936 630.644 973.668 627.013 976.056 623.135C976.197 627.349 976.015 631.622 975.481 635.959C973.728 640.052 971.641 643.873 969.253 647.45ZM968.516 660.65C969.04 656.8 969.285 652.982 969.275 649.194C971.4 646.143 973.306 642.913 974.971 639.486C974.462 642.544 973.777 645.635 972.905 648.761C971.725 652.988 970.254 656.943 968.516 660.65ZM791.645 754.17C792.416 750.197 793.268 746.265 794.214 742.38C791.63 743.395 789.08 744.449 786.569 745.548C785.295 749.168 784.115 752.843 783.019 756.568C785.024 755.976 787.043 755.405 789.075 754.854C789.93 754.623 790.786 754.395 791.645 754.17ZM781.878 756.908C782.941 753.258 784.084 749.654 785.316 746.102C782.371 747.415 779.479 748.792 776.651 750.24C775.053 753.458 773.544 756.737 772.115 760.073C775.322 758.95 778.579 757.899 781.878 756.908ZM770.836 760.525C772.199 757.303 773.636 754.132 775.155 751.015C772.594 752.36 770.086 753.766 767.637 755.24C765.784 758.03 764.011 760.886 762.314 763.802C765.108 762.645 767.951 761.556 770.836 760.525ZM760.79 764.441C762.342 761.731 763.956 759.071 765.64 756.465C763.502 757.802 761.413 759.192 759.376 760.641C757.393 762.932 755.479 765.285 753.629 767.696C755.975 766.556 758.364 765.472 760.79 764.441ZM751.62 768.692C753.015 766.827 754.448 764.994 755.919 763.196C752.541 765.791 749.324 768.564 746.288 771.536C748.038 770.552 749.815 769.604 751.62 768.692ZM587.15 1023.51C590.323 1020.41 593.366 1017.12 596.296 1013.67C602.993 1017.03 609.669 1020.12 616.321 1022.86C613.172 1026.07 609.867 1029.09 606.388 1031.88C599.984 1029.49 593.573 1026.67 587.15 1023.51ZM573.732 1034.85C578.175 1031.64 582.383 1028.09 586.387 1024.25C592.754 1027.39 599.116 1030.2 605.475 1032.61C601.184 1035.98 596.631 1039.02 591.782 1041.69C585.743 1039.85 579.729 1037.54 573.732 1034.85ZM559.093 1043.7C563.9 1041.32 568.456 1038.58 572.79 1035.52C578.688 1038.19 584.606 1040.49 590.552 1042.35C585.953 1044.81 581.091 1046.93 575.939 1048.69C570.27 1047.48 564.658 1045.79 559.093 1043.7ZM543.738 1049.79C548.675 1048.29 553.375 1046.45 557.859 1044.3C563.22 1046.36 568.627 1048.05 574.09 1049.31C571.009 1050.3 567.825 1051.16 564.534 1051.89C562.867 1052.27 561.211 1052.59 559.567 1052.88C554.209 1052.28 548.936 1051.23 543.738 1049.79ZM528.506 1053.21L528.766 1053.17C533.339 1052.47 537.727 1051.51 541.945 1050.31C546.571 1051.68 551.258 1052.72 556.011 1053.43C546.488 1054.73 537.34 1054.58 528.506 1053.21ZM346.067 910.317C350.879 910.463 355.663 910.658 360.41 910.918C357.973 908.383 355.523 905.885 353.058 903.43C348.477 902.807 343.846 902.257 339.173 901.766C341.486 904.587 343.784 907.44 346.067 910.317ZM338.269 900.666C342.846 901.138 347.387 901.667 351.881 902.263C348.902 899.321 345.901 896.444 342.871 893.645C338.61 892.615 334.286 891.661 329.909 890.772C332.722 894.014 335.508 897.316 338.269 900.666ZM328.831 889.535C333.057 890.379 337.236 891.283 341.359 892.255C338.516 889.661 335.65 887.137 332.755 884.692C328.871 883.294 324.914 881.973 320.893 880.719C323.567 883.597 326.211 886.539 328.831 889.535ZM319.518 879.248C323.251 880.39 326.931 881.589 330.552 882.851C327.933 880.686 325.291 878.588 322.623 876.565C319.228 874.882 315.755 873.27 312.213 871.722C314.674 874.173 317.108 876.684 319.518 879.248ZM310.251 869.788C312.983 870.95 315.676 872.149 318.327 873.387C315.981 871.697 313.615 870.067 311.227 868.5C308.977 867.024 306.679 865.587 304.337 864.186C306.326 866.011 308.297 867.88 310.251 869.788ZM81.8318 756.731C86.5968 759.437 91.5333 762.043 96.6114 764.569C95.1008 770.88 93.9938 777.21 93.3417 783.56C88.6527 781.147 84.1358 778.621 79.8172 775.963C79.9945 769.507 80.6837 763.098 81.8318 756.731ZM64.6413 745.95C69.78 749.535 75.2203 752.943 80.9102 756.205C79.7503 762.542 79.0406 768.924 78.8335 775.353C73.729 772.165 68.9082 768.787 64.4151 765.187C63.9651 758.691 64.0572 752.282 64.6413 745.95ZM50.1734 734.618C54.3843 738.351 58.9068 741.899 63.6981 745.287C63.0905 751.555 62.9602 757.899 63.3559 764.329C59.179 760.909 55.2952 757.29 51.7409 753.444C50.7102 747.055 50.2017 740.783 50.1734 734.618ZM49.1716 733.721C49.1542 739.742 49.5906 745.865 50.5201 752.1C47.1988 748.376 44.182 744.443 41.5016 740.276C40.7341 737.326 40.0897 734.277 39.5738 731.125C39.1146 728.319 38.7525 725.542 38.4841 722.792C41.7554 726.61 45.3292 730.246 49.1716 733.721ZM42.3628 743.373C44.9166 747.065 47.7377 750.569 50.8023 753.904C51.2271 756.497 51.7373 759.109 52.3357 761.742C52.821 763.877 53.363 765.961 53.96 767.994C48.9923 760.663 45.0691 752.504 42.3628 743.373ZM344.38 373.644C344.978 372.038 345.554 370.418 346.104 368.782C347.529 367.742 348.949 366.697 350.363 365.645C349.642 367.231 348.898 368.802 348.133 370.358C346.89 371.46 345.638 372.555 344.38 373.644ZM350.088 368.611C350.746 367.224 351.387 365.825 352.009 364.413C353.58 363.233 355.143 362.044 356.696 360.844C355.911 362.161 355.11 363.465 354.294 364.757C352.904 366.053 351.502 367.337 350.088 368.611ZM357.114 362.091C357.694 361.128 358.266 360.159 358.829 359.183C359.905 358.339 360.977 357.489 362.042 356.633C361.372 357.519 360.695 358.398 360.012 359.272C359.053 360.219 358.087 361.158 357.114 362.091ZM514.44 23.2784C517.72 20.6883 521.185 18.2996 524.853 16.1285C519.703 13.9831 514.531 12.1508 509.341 10.6568C505.367 12.4108 501.616 14.3754 498.07 16.5371C503.333 18.3846 508.588 20.545 513.832 22.9933C513.981 23.0631 514.131 23.1332 514.281 23.2035L514.44 23.2784ZM525.934 15.4979C530.309 12.9861 534.967 10.7793 539.934 8.90394C535.207 7.29585 530.446 5.97998 525.651 4.97656C523.592 5.52981 521.521 6.14271 519.438 6.81647C516.441 7.78566 513.556 8.86029 510.777 10.036C515.85 11.5458 520.904 13.3743 525.934 15.4979ZM551.015 5.41389C552.559 5.01773 554.095 4.65314 555.623 4.31966C551.143 3.18786 546.615 2.33571 542.039 1.78031C537.356 2.3445 532.608 3.21962 527.794 4.42114C532.366 5.45936 536.907 6.77755 541.415 8.35811C544.496 7.24927 547.694 6.26584 551.015 5.41389ZM557.817 3.86104C561.896 3.04589 565.916 2.45323 569.878 2.07422C562.18 0.962732 554.294 0.696876 546.213 1.35801C550.117 1.9831 553.984 2.82104 557.817 3.86104ZM811.777 350.675C813.251 351.99 814.751 353.287 816.275 354.568C817.136 357.083 817.991 359.568 818.838 362.018C817.44 360.587 816.071 359.138 814.735 357.671C813.758 355.377 812.772 353.044 811.777 350.675ZM815.901 360.401C817.109 361.684 818.342 362.954 819.597 364.21C820.588 367.067 821.57 369.877 822.543 372.636C821.627 371.443 820.732 370.241 819.857 369.029C819.672 368.772 819.486 368.514 819.3 368.254C818.179 365.693 817.046 363.074 815.901 360.401ZM821.158 372.47C821.954 373.52 822.766 374.564 823.592 375.6C824.294 377.578 824.992 379.529 825.686 381.451C824.997 380.3 824.302 379.123 823.602 377.919C822.794 376.136 821.979 374.32 821.158 372.47ZM963.739 577.925C965.827 581.79 967.712 585.689 969.365 589.629C972.524 586.19 975.399 582.607 977.946 578.852C976.736 574.94 975.262 571.092 973.554 567.297C970.563 570.969 967.275 574.503 963.739 577.925ZM969.786 590.647C971.718 595.377 973.311 600.167 974.511 605.029C977.053 601.606 979.309 598.009 981.243 594.213C980.667 589.405 979.676 584.699 978.317 580.08C975.769 583.76 972.911 587.274 969.786 590.647ZM974.814 606.292C975.842 610.715 976.543 615.197 976.878 619.748C978.735 616.397 980.339 612.867 981.667 609.138C981.944 604.671 981.857 600.296 981.437 596.002C979.507 599.606 977.289 603.028 974.814 606.292ZM976.833 632.568C978.072 629.216 979.097 625.688 979.891 621.97C980.56 618.841 981.049 615.756 981.368 612.714C980.098 615.804 978.634 618.753 976.992 621.573C977.179 625.194 977.132 628.857 976.833 632.568ZM797.152 731.491C796.199 734.688 795.319 737.923 794.506 741.192C791.982 742.175 789.487 743.196 787.027 744.259C788.127 741.197 789.296 738.175 790.538 735.199C792.703 733.922 794.909 732.688 797.152 731.491ZM789.102 736.056C787.925 738.934 786.816 741.852 785.77 744.807C782.932 746.056 780.142 747.363 777.406 748.736C778.768 746.057 780.192 743.421 781.684 740.834C784.093 739.177 786.568 737.587 789.102 736.056ZM779.774 742.171C778.428 744.576 777.139 747.02 775.902 749.5C773.537 750.716 771.216 751.984 768.942 753.306C770.446 751.111 772.002 748.958 773.613 746.85C775.61 745.234 777.665 743.675 779.774 742.171ZM770.301 749.634C769.148 751.232 768.024 752.854 766.929 754.499C765.318 755.472 763.732 756.474 762.173 757.508C764.737 754.741 767.452 752.121 770.301 749.634ZM617.321 1023.27C614.2 1026.47 610.925 1029.48 607.48 1032.28C613.045 1034.32 618.604 1036.04 624.159 1037.38C627.916 1034.96 631.467 1032.33 634.83 1029.48C629.013 1027.73 623.176 1025.64 617.321 1023.27ZM606.571 1033.02C602.352 1036.37 597.879 1039.4 593.12 1042.09C598.242 1043.59 603.381 1044.75 608.543 1045.54C613.67 1043.41 618.474 1040.92 622.985 1038.12C617.514 1036.76 612.044 1035.04 606.571 1033.02ZM591.896 1042.77C587.464 1045.18 582.789 1047.3 577.844 1049.08C582.568 1050.01 587.333 1050.6 592.143 1050.83C593.806 1050.44 595.478 1050 597.159 1049.52C600.474 1048.56 603.667 1047.48 606.746 1046.27C601.775 1045.43 596.826 1044.25 591.896 1042.77ZM564.752 1052.87C564.226 1052.99 563.701 1053.1 563.178 1053.21C571.435 1053.81 579.898 1053.33 588.604 1051.6C584.367 1051.24 580.167 1050.61 575.999 1049.73C572.394 1050.95 568.648 1052 564.752 1052.87ZM374.038 911.86C370.016 911.518 365.96 911.235 361.874 911C359.497 908.517 357.106 906.067 354.7 903.656C358.667 904.212 362.594 904.824 366.474 905.499C369.009 907.572 371.53 909.694 374.038 911.86ZM364.893 904.214C361.143 903.581 357.351 903.008 353.525 902.484C350.663 899.639 347.778 896.852 344.867 894.134C348.509 895.039 352.102 896.001 355.642 897.028C358.748 899.342 361.831 901.741 364.893 904.214ZM353.343 895.334C350.057 894.416 346.727 893.551 343.359 892.734C340.746 890.323 338.112 887.969 335.454 885.68C338.63 886.862 341.753 888.098 344.821 889.393C347.682 891.296 350.522 893.279 353.343 895.334ZM340.305 886.469C337.986 885.553 335.638 884.668 333.263 883.812C331.322 882.174 329.367 880.572 327.4 879.008C329.302 880.013 331.177 881.041 333.024 882.096C335.467 883.492 337.894 884.951 340.305 886.469ZM93.2362 784.63C88.5816 782.244 84.0912 779.747 79.7909 777.12C79.6876 782.875 79.9928 788.669 80.7441 794.504C84.5578 797.169 88.5749 799.676 92.7731 802.045C92.5215 796.222 92.6888 790.417 93.2362 784.63ZM78.8017 776.511C73.7579 773.384 68.9821 770.072 64.5171 766.546C64.966 772.101 65.8126 777.719 67.088 783.406C70.9564 787.091 75.152 790.519 79.6377 793.722C78.9385 787.945 78.6719 782.208 78.8017 776.511ZM65.79 782.148C64.6145 776.599 63.8434 771.115 63.4476 765.692C59.3658 762.399 55.5527 758.92 52.042 755.229C52.4088 757.314 52.8313 759.411 53.3108 761.52C54.0282 764.677 54.8708 767.719 55.8333 770.653C58.8267 774.741 62.1564 778.564 65.79 782.148ZM595.793 1050.94C604.15 1051.02 612.649 1049.99 621.318 1047.68C617.083 1047.57 612.867 1047.2 608.667 1046.57C605.083 1048.05 601.343 1049.35 597.436 1050.48C596.887 1050.64 596.339 1050.79 595.793 1050.94ZM610.457 1045.81C615.197 1046.44 619.956 1046.75 624.737 1046.7C626.268 1046.23 627.804 1045.73 629.345 1045.18C632.815 1043.94 636.137 1042.57 639.32 1041.06C634.327 1040.52 629.334 1039.63 624.341 1038.45C619.995 1041.21 615.377 1043.67 610.457 1045.81ZM625.509 1037.69C630.688 1038.88 635.863 1039.74 641.037 1040.22C645.014 1038.25 648.77 1036.06 652.322 1033.67C646.892 1032.72 641.442 1031.42 635.975 1029.82C632.673 1032.65 629.19 1035.28 625.509 1037.69ZM780.931 740.138C779.336 741.239 777.769 742.37 776.233 743.531C778.661 740.571 781.254 737.752 783.994 735.061C782.942 736.732 781.922 738.425 780.931 740.138ZM789.744 734.507C787.399 735.897 785.101 737.337 782.857 738.832C784.21 736.562 785.616 734.33 787.08 732.139C789.028 730.359 791.042 728.636 793.117 726.966C791.936 729.446 790.812 731.96 789.744 734.507ZM797.558 730.144C795.401 731.28 793.277 732.451 791.189 733.661C792.365 730.914 793.607 728.207 794.917 725.542C796.716 724.143 798.557 722.781 800.438 721.454C799.412 724.316 798.454 727.214 797.558 730.144ZM982.812 605.642C983.827 602.256 984.622 598.711 985.18 594.994C985.674 591.706 985.978 588.479 986.102 585.309C985.022 588.461 983.74 591.487 982.273 594.396C982.701 598.082 982.887 601.829 982.812 605.642ZM982.043 592.592C983.686 589.158 985.068 585.563 986.166 581.79C986.155 577.213 985.767 572.753 985.039 568.4C983.324 572.092 981.315 575.624 979.043 579.015C980.392 583.454 981.406 587.976 982.043 592.592ZM978.659 577.783C980.986 574.235 983.021 570.534 984.728 566.658C984.007 562.852 983.026 559.127 981.807 555.474C979.592 559.265 977.061 562.908 974.257 566.425C975.956 570.155 977.433 573.938 978.659 577.783ZM810.031 349.1C810.917 351.213 811.795 353.3 812.666 355.357C811.611 354.155 810.578 352.94 809.568 351.712C809.436 351.553 809.305 351.392 809.173 351.231C808.226 349.384 807.271 347.506 806.308 345.598C807.528 346.779 808.769 347.946 810.031 349.1ZM537.835 1.35511C530.004 0.721388 522.034 0.961026 513.924 2.15811C517.845 2.54566 521.744 3.14629 525.621 3.94931C529.74 2.85098 533.811 1.98943 537.835 1.35511ZM523.472 4.54263C518.965 3.69054 514.428 3.11605 509.862 2.83586C505.12 3.7185 500.331 4.92948 495.494 6.48534C500.099 7.25003 504.691 8.29277 509.267 9.5963C512.415 8.22027 515.7 6.97429 519.13 5.86496C520.583 5.39494 522.031 4.9543 523.472 4.54263ZM507.838 10.234C503.049 8.91682 498.243 7.88926 493.424 7.17113C491.598 7.79414 489.764 8.46638 487.924 9.18875C485.802 10.0219 483.741 10.9067 481.74 11.8415C486.78 12.9632 491.817 14.3946 496.847 16.1137C500.309 13.962 503.968 11.9978 507.838 10.234ZM343.633 375.606C344.739 374.659 345.839 373.706 346.933 372.748C346.24 374.104 345.529 375.45 344.803 376.785C343.867 377.771 342.923 378.751 341.972 379.726C342.543 378.363 343.097 376.99 343.633 375.606ZM348.942 370.976C350.008 370.03 351.068 369.078 352.121 368.119C351.513 369.038 350.898 369.951 350.276 370.859C349.33 371.914 348.375 372.962 347.412 374.003C347.931 373 348.441 371.992 348.942 370.976ZM813.881 358.219C814.737 360.228 815.586 362.207 816.428 364.156C815.674 363.06 814.914 361.938 814.146 360.79C813.187 358.978 812.219 357.129 811.241 355.245C812.107 356.244 812.987 357.236 813.881 358.219ZM80.9246 795.846C84.7079 798.451 88.6834 800.904 92.8297 803.223C93.1272 808.845 93.8171 814.484 94.9345 820.141C91.2533 817.733 87.7535 815.164 84.4531 812.419C82.8604 806.856 81.6946 801.332 80.9246 795.846ZM67.4949 785.162C71.3105 788.693 75.4264 791.986 79.8084 795.069C80.5191 800.431 81.6039 805.83 83.092 811.267C79.1417 807.865 75.4909 804.198 72.1721 800.233C71.078 797.461 70.0888 794.582 69.2091 791.59C68.5761 789.438 68.0052 787.295 67.4949 785.162ZM66.1793 783.923C66.777 786.558 67.4661 789.208 68.2497 791.872C68.8402 793.881 69.4795 795.839 70.1662 797.748C64.6774 790.693 60.1973 782.734 56.8938 773.71C59.7298 777.321 62.8332 780.718 66.1793 783.923ZM366.904 904.559C364.083 902.255 361.243 900.012 358.383 897.839C361.602 898.811 364.774 899.839 367.894 900.927C370.945 902.702 373.979 904.561 376.997 906.497C373.671 905.798 370.305 905.154 366.904 904.559ZM368.482 905.855C372.152 906.518 375.778 907.24 379.355 908.028C381.894 909.694 384.421 911.413 386.938 913.179C383.24 912.731 379.504 912.343 375.735 912.007C373.33 909.916 370.913 907.864 368.482 905.855ZM356.094 896.118C353.998 894.558 351.89 893.036 349.77 891.556C351.69 892.425 353.585 893.32 355.455 894.24C358.082 895.534 360.696 896.899 363.296 898.327C360.922 897.559 358.521 896.823 356.094 896.118ZM654.308 1041.61C645.557 1044.58 636.9 1046.18 628.32 1046.59C628.773 1046.44 629.227 1046.28 629.681 1046.12C633.723 1044.68 637.567 1043.05 641.226 1041.25C645.586 1041.64 649.947 1041.77 654.308 1041.61ZM657.603 1040.43C652.714 1040.78 647.824 1040.75 642.934 1040.38C646.738 1038.42 650.338 1036.25 653.749 1033.91C658.813 1034.73 663.86 1035.24 668.889 1035.4C666.615 1036.58 664.263 1037.69 661.831 1038.73C660.419 1039.33 659.01 1039.9 657.603 1040.43ZM789.437 728.72C790.964 727.414 792.526 726.139 794.121 724.894C795.039 723.035 795.99 721.197 796.976 719.38C794.288 722.36 791.768 725.468 789.437 728.72ZM795.94 723.498C797.605 722.242 799.303 721.015 801.033 719.818C801.988 717.233 802.999 714.678 804.071 712.155C802.621 713.516 801.208 714.905 799.834 716.323C798.474 718.677 797.177 721.069 795.94 723.498ZM988.862 567.204C988.527 571.067 987.928 574.764 987.086 578.307C986.913 574.379 986.467 570.538 985.769 566.777C987.114 563.687 988.253 560.486 989.17 557.163C989.258 560.436 989.16 563.781 988.862 567.204ZM989.005 553.707C988.113 557.642 986.91 561.408 985.424 565.023C984.668 561.382 983.677 557.815 982.472 554.316C984.474 550.76 986.199 547.073 987.614 543.239C988.292 546.646 988.761 550.134 989.005 553.707ZM806.102 347.405C805.433 346.085 804.761 344.752 804.084 343.404C803.188 342.503 802.305 341.595 801.435 340.677C802.11 341.794 802.78 342.897 803.446 343.986C804.341 345.154 805.227 346.294 806.102 347.405ZM481.161 5.02403C489.433 3.24089 497.621 2.4846 505.72 2.66303C501.625 3.57739 497.495 4.73517 493.33 6.1468C489.284 5.55233 485.227 5.17418 481.161 5.02403ZM477.218 5.95048C481.909 5.95219 486.59 6.26445 491.258 6.86932C490.028 7.30994 488.795 7.77272 487.559 8.25794C484.997 9.2636 482.524 10.3436 480.137 11.4952C475.468 10.5171 470.797 9.80668 466.128 9.38151C469.841 8.02768 473.537 6.88668 477.218 5.95048ZM342.889 380.218C342.226 380.9 341.559 381.579 340.889 382.256C340.459 383.24 340.02 384.218 339.573 385.191C340.092 384.548 340.607 383.902 341.119 383.254C341.718 382.248 342.308 381.236 342.889 380.218ZM345.634 377.362L345.618 377.379L345.608 377.397L345.634 377.362ZM808.496 352.103L808.332 351.782L808.16 351.573C808.272 351.75 808.384 351.926 808.496 352.103ZM95.2141 821.515C91.623 819.205 88.1976 816.747 84.9546 814.125C85.6539 816.445 86.4277 818.771 87.2782 821.104C88.3097 823.934 89.4363 826.652 90.6544 829.263C93.4952 832.236 96.5336 835.009 99.7541 837.598C97.8378 832.219 96.3343 826.859 95.2141 821.515ZM86.3387 821.446C85.3077 818.618 84.3886 815.8 83.5774 812.993C79.9313 809.943 76.5264 806.676 73.3876 803.169C77.3198 812.236 82.4218 820.102 88.5233 826.954C87.7541 825.166 87.0255 823.331 86.3387 821.446ZM392.089 911.187C388.809 910.275 385.477 909.43 382.1 908.648C384.424 910.204 386.738 911.803 389.043 913.44C392.468 913.878 395.86 914.368 399.213 914.916C396.845 913.627 394.471 912.382 392.089 911.187ZM372.878 902.736C375.178 904.143 377.469 905.596 379.75 907.091C382.332 907.662 384.888 908.267 387.417 908.91C384.638 907.597 381.849 906.353 379.05 905.186C377.019 904.339 374.961 903.523 372.878 902.736ZM661.114 1040.11C668.589 1039.3 676.063 1037.58 683.543 1034.83C679.358 1035.3 675.159 1035.5 670.948 1035.45C668.159 1036.95 665.254 1038.35 662.224 1039.65C661.854 1039.8 661.484 1039.96 661.114 1040.11ZM805.055 709.885C803.996 710.847 802.954 711.823 801.931 712.814C803.618 710.099 805.431 707.467 807.36 704.913C806.563 706.555 805.795 708.213 805.055 709.885ZM989.702 550.239C990.348 546.559 990.728 542.734 990.821 538.752C990.872 536.507 990.842 534.3 990.731 532.131C990.106 535.324 989.276 538.419 988.257 541.423C988.89 544.303 989.375 547.24 989.702 550.239ZM473.14 6.02753C466.16 6.29444 459.158 7.25851 452.141 8.97855C456.019 8.84379 459.9 8.9183 463.783 9.19203C466.913 7.98818 470.033 6.93494 473.14 6.02753ZM100.408 839.392C101.086 841.209 101.811 843.027 102.585 844.848C103.712 847.501 104.92 850.048 106.205 852.493C100.708 846.58 95.945 839.818 92.0222 832.076C94.6665 834.669 97.4657 837.104 100.408 839.392ZM397.098 912.645C398.802 913.547 400.503 914.474 402.2 915.422C404.515 915.828 406.81 916.263 409.085 916.729C407.296 916.053 405.504 915.405 403.71 914.788C401.532 914.038 399.328 913.325 397.098 912.645Z" fill="url(#paint0_linear_284_1284)"/>
<defs>
<linearGradient id="paint0_linear_284_1284" x1="494.184" y1="0" x2="494.184" y2="1055.33" gradientUnits="userSpaceOnUse">
<stop stop-color="#b08401"/>
<stop offset="1" stop-color="#b08401"/>
</linearGradient>
</defs>
</svg>
