<?xml version="1.0" standalone="no"?>
<!DOCTYPE svg PUBLIC "-//W3C//DTD SVG 20010904//EN"
 "http://www.w3.org/TR/2001/REC-SVG-20010904/DTD/svg10.dtd">
<svg version="1.0" xmlns="http://www.w3.org/2000/svg"
 width="826.000000pt" height="402.000000pt" viewBox="0 0 826.000000 402.000000"
 preserveAspectRatio="xMidYMid meet">

<g transform="translate(0.000000,402.000000) scale(0.100000,-0.100000)"
fill="#000000" stroke="none">
<path d="M795 3994 c-448 -84 -730 -412 -784 -912 -25 -230 -8 -576 35 -735
46 -166 140 -333 254 -448 58 -58 187 -156 194 -147 2 1 13 30 25 63 29 77 72
163 116 228 l35 51 -34 36 c-82 83 -153 252 -175 413 -16 114 -14 453 3 567
56 367 233 552 546 567 277 13 471 -110 530 -337 6 -25 13 -53 16 -62 5 -16
24 -18 221 -18 l216 0 -7 53 c-10 71 -60 220 -98 287 -105 188 -280 316 -513
376 -88 23 -124 27 -300 30 -148 3 -221 0 -280 -12z"/>
<path d="M2824 2985 c-222 -48 -379 -182 -408 -347 l-7 -38 171 0 c154 0 171
2 176 18 17 56 38 85 79 111 81 52 213 62 305 24 78 -32 119 -99 127 -209 l6
-74 -105 0 c-260 0 -465 -34 -582 -98 -94 -51 -172 -145 -190 -228 -5 -24 0
-42 29 -89 40 -66 90 -190 107 -267 14 -59 44 -84 148 -118 79 -27 239 -37
323 -21 72 13 168 55 225 98 23 18 44 33 46 33 2 0 9 -21 16 -47 6 -26 16 -53
22 -60 8 -10 56 -13 180 -13 l170 0 -5 28 c-3 15 -15 59 -26 97 -18 64 -20
102 -20 430 -1 198 -6 387 -11 420 -14 84 -61 176 -118 226 -59 53 -167 105
-257 124 -87 18 -317 18 -401 0z m444 -828 l3 -117 -46 -49 c-108 -115 -324
-147 -434 -64 -34 26 -70 92 -71 128 0 75 45 141 123 179 70 34 138 44 292 42
l130 -1 3 -118z"/>
<path d="M4125 2989 c-123 -28 -263 -103 -316 -171 -60 -76 -74 -117 -74 -213
0 -107 16 -146 93 -217 83 -78 202 -126 431 -174 208 -43 286 -81 310 -150 17
-48 10 -82 -24 -122 -24 -28 -25 -36 -25 -156 l0 -126 28 6 c156 37 281 124
334 231 19 41 23 63 23 148 0 91 -3 104 -27 146 -72 122 -227 197 -522 254
-125 23 -212 55 -253 90 -34 29 -38 38 -38 81 0 62 29 104 92 135 57 28 170
37 243 19 79 -19 160 -100 160 -160 0 -19 5 -20 171 -20 l172 0 -6 55 c-16
155 -176 295 -389 339 -85 18 -314 20 -383 5z"/>
<path d="M1040 2685 l0 -155 255 0 255 0 0 -229 0 -228 -37 -26 c-50 -34 -115
-63 -188 -82 -120 -31 -200 -118 -259 -284 l-27 -74 148 6 c169 6 277 25 401
69 157 55 255 112 355 206 l57 55 0 449 0 448 -480 0 -480 0 0 -155z"/>
<path d="M1304 2395 c-208 -38 -356 -109 -493 -239 -160 -154 -269 -386 -301
-646 -16 -131 -13 -494 6 -618 69 -468 374 -789 823 -866 119 -20 369 -21 506
-1 242 34 437 120 593 260 l52 47 0 454 0 454 -475 0 -475 0 0 -155 0 -155
255 0 255 0 0 -224 0 -224 -31 -27 c-78 -65 -204 -103 -369 -112 -378 -20
-612 172 -685 563 -14 72 -16 135 -13 353 4 247 7 273 31 364 38 143 79 220
162 303 81 82 151 119 267 142 l78 15 0 164 0 163 -57 -1 c-32 0 -90 -7 -129
-14z"/>
<path d="M2060 2114 l0 -198 -31 -32 -31 -32 27 -83 c15 -46 29 -90 31 -96 3
-10 55 -13 220 -13 l216 0 -7 43 c-15 95 -39 167 -86 263 -69 141 -159 238
-301 323 l-38 23 0 -198z"/>
<path d="M3684 2033 c10 -77 59 -164 126 -227 57 -52 172 -118 233 -132 l27
-6 0 135 c0 128 -1 138 -25 173 -13 20 -27 51 -31 70 l-6 34 -165 0 -166 0 7
-47z"/>
<path d="M5500 1635 c0 -190 -3 -345 -6 -345 -3 0 -26 18 -50 39 -82 72 -167
100 -299 101 -153 0 -262 -46 -363 -155 -60 -65 -122 -182 -147 -280 -41 -160
-39 -405 6 -565 56 -204 196 -360 363 -405 48 -13 89 -16 167 -13 134 6 199
30 279 104 l59 55 5 -33 c3 -18 7 -49 8 -68 l3 -35 143 -3 142 -3 0 976 0 975
-155 0 -155 0 0 -345z m-135 -492 c40 -21 87 -66 118 -113 15 -21 17 -61 17
-309 0 -269 -1 -285 -21 -317 -31 -50 -102 -109 -151 -124 -64 -19 -168 -16
-219 7 -129 57 -198 233 -186 473 10 217 77 351 199 397 52 20 194 11 243 -14z"/>
<path d="M4140 985 l0 -975 155 0 155 0 0 975 0 975 -155 0 -155 0 0 -975z"/>
<path d="M3176 1414 c-109 -26 -184 -70 -271 -158 -86 -87 -137 -174 -170
-291 -26 -93 -32 -331 -11 -435 40 -196 129 -334 277 -430 95 -62 165 -81 310
-87 222 -10 347 34 480 166 86 86 145 192 176 316 24 98 24 352 0 450 -59 237
-240 425 -454 470 -86 18 -260 18 -337 -1z m295 -261 c129 -57 199 -211 199
-437 0 -130 -18 -216 -62 -298 -55 -103 -144 -158 -258 -158 -150 0 -259 96
-306 270 -22 81 -25 280 -5 360 34 141 113 244 210 275 60 19 163 14 222 -12z"/>
<path d="M6546 1414 c-203 -49 -364 -211 -436 -439 -31 -96 -39 -354 -16 -465
27 -125 84 -231 174 -319 132 -132 262 -181 472 -181 133 0 244 23 319 67 68
39 142 99 179 146 l33 41 -83 83 -82 82 -51 -48 c-160 -151 -406 -160 -545
-21 -49 49 -97 145 -106 213 l-7 47 448 0 448 0 -6 163 c-6 181 -18 240 -74
357 -65 136 -195 239 -345 275 -79 18 -244 18 -322 -1z m246 -248 c25 -7 62
-26 82 -41 48 -37 94 -132 102 -212 l7 -63 -292 0 c-274 0 -292 1 -287 18 3 9
10 37 16 62 31 119 111 210 210 241 40 12 113 10 162 -5z"/>
<path d="M8051 1395 c-71 -20 -110 -45 -164 -105 -25 -27 -47 -46 -51 -43 -3
3 -6 35 -6 70 l0 63 -150 0 -150 0 0 -685 0 -685 155 0 155 0 0 460 c0 515 -4
486 73 558 62 56 131 76 253 70 l94 -4 0 147 c0 82 -4 150 -9 153 -23 15 -149
15 -200 1z"/>
</g>
</svg>
